<?xml version="1.0" encoding="utf-8"?>
<!-- Generator: Adobe Illustrator 18.1.0, SVG Export Plug-In . SVG Version: 6.00 Build 0)  -->
<svg version="1.1" id="Layer_1" xmlns="http://www.w3.org/2000/svg" xmlns:xlink="http://www.w3.org/1999/xlink" x="0px" y="0px"
	 viewBox="0 0 24 288" enable-background="new 0 0 24 288" xml:space="preserve">
<g id="Layer_1_1_">
</g>
<path fill="#3D3D3C" d="M14.9,19.3c0-0.1-0.1-0.2-0.2-0.1l-1.9,1.3c-0.6-0.4-1.6-1-2.7-1.3l0-1.2l-2.3,1.1c-2,0.3-3.6,1.6-3.6,1.8
	c0,0.3,2,1.9,4.5,1.9c0.4,0,0.8-0.1,1.2-0.1l1.2,0.7l0-1.1c0.5-0.3,1.3-0.7,1.7-0.9l1.9,1.3c0.1,0.1,0.2,0,0.2-0.1
	c0,0-0.6-0.9-0.6-1.6C14.4,20.3,14.9,19.3,14.9,19.3z M6.7,20.9c-0.3,0-0.5-0.2-0.5-0.5c0-0.3,0.2-0.5,0.5-0.5
	c0.3,0,0.5,0.2,0.5,0.5C7.2,20.7,7,20.9,6.7,20.9z M11.2,24.7c0-0.1-0.1-0.2-0.2-0.1l-1.9,1.3c-0.6-0.4-1.6-1-2.7-1.3v-1.2l-2.3,1.1
	c-2,0.3-3.6,1.6-3.6,1.8c0,0.3,2,1.9,4.5,1.9c0.4,0,0.8-0.1,1.2-0.1l1.2,0.7v-1.1c0.5-0.3,1.3-0.7,1.6-0.9L11,28
	c0.1,0.1,0.2,0,0.2-0.1c0,0-0.6-0.9-0.6-1.6C10.6,25.7,11.2,24.7,11.2,24.7z M2.9,26.2c-0.3,0-0.5-0.2-0.5-0.5
	c0-0.3,0.2-0.5,0.5-0.5s0.5,0.2,0.5,0.5C3.5,26,3.2,26.2,2.9,26.2z M15.4,30c0-0.1-0.1-0.2-0.2-0.1l-1.9,1.3c-0.6-0.4-1.6-1-2.7-1.3
	v-1.2l-2.3,1.1c-2,0.3-3.6,1.6-3.6,1.8c0,0.3,2,1.9,4.5,1.9c0.4,0,0.8-0.1,1.2-0.1l1.2,0.7v-1.1c0.5-0.3,1.3-0.7,1.6-0.9l1.9,1.3
	c0.1,0.1,0.2,0,0.2-0.1c0,0-0.6-0.9-0.6-1.6S15.4,30,15.4,30z M7.2,31.6c-0.3,0-0.5-0.2-0.5-0.5c0-0.3,0.2-0.5,0.5-0.5
	c0.3,0,0.5,0.2,0.5,0.5C7.7,31.3,7.5,31.6,7.2,31.6z"/>
<path id="leaf_1_" fill="#3D3D3C" d="M4.2,41.1c-2.3,3-1.3,5.8-1.2,7.1l-2.3,2.3v0.9l2.7-2.7c1.6,0,11.9,3.7,11.9-12.2
	C9.3,38.3,6.5,38.1,4.2,41.1z M8.6,44c-1.4,0.8-3.5,2.1-4.2,3c-0.7,0.9-1.2,2-0.3-0.2C5,44.6,7.6,43,9.6,42c1.5-0.8,2.9-1.5,3.9-3
	c1-1.5,0.3,0.2,0.3,0.2C12.4,41.9,10.6,42.9,8.6,44z"/>
<path fill="#3D3D3C" d="M4.1,57.2c0.3-0.5,0.5-1.1,0.5-1.9c0-0.4-0.3-0.7-0.7-0.7c-0.3,0-0.6,0.2-0.6,0.5c-0.2-0.5-0.5-0.9-0.5-0.9
	c-0.2-0.3-0.6-0.4-0.9-0.1c-0.3,0.2-0.4,0.6-0.1,0.9c0,0,0.2,0.2,0.3,0.6c-0.3-0.2-0.5-0.3-0.5-0.3c-0.3-0.2-0.7,0-0.9,0.3
	c-0.2,0.3,0,0.7,0.3,0.9c0.2,0.1,0.5,0.3,0.9,0.6C0.9,57.6,0,58.4,0,60c0,0.1,0.4,10,3,10s3-9.9,3-10C6,58.4,5.1,57.6,4.1,57.2z
	 M3,68.6c-0.3-0.3-0.7-1.5-1-2.8h0.3c0.2,0,0.3-0.1,0.3-0.3s-0.2-0.3-0.3-0.3H1.9c-0.1-0.5-0.2-1.1-0.3-1.7h0.7
	c0.2,0,0.3-0.1,0.3-0.3c0-0.2-0.2-0.3-0.3-0.3H1.5c-0.1-0.6-0.1-1.2-0.2-1.7h1c0.2,0,0.3-0.1,0.3-0.3c0-0.2-0.2-0.3-0.3-0.3h-1
	c0-0.2,0-0.3,0-0.4c0-1.6,1.4-1.7,1.7-1.7c0.3,0,1.7,0.1,1.7,1.7C4.7,62.3,3.8,67.9,3,68.6z"/>
<path fill="#3D3D3C" d="M12.3,67.4c-0.2-0.1-0.5-0.3-0.9-0.6c1-0.4,1.9-1.2,1.9-2.8c0-0.1-0.4-10-3-10s-3,9.9-3,10
	c0,1.6,0.9,2.4,1.9,2.8c-0.3,0.5-0.5,1.1-0.5,1.9c0,0.4,0.3,0.7,0.7,0.7c0.3,0,0.6-0.2,0.6-0.5c0.2,0.5,0.5,0.9,0.5,0.9
	c0.2,0.3,0.6,0.4,0.9,0.1c0.3-0.2,0.4-0.6,0.1-0.9c0,0-0.2-0.2-0.3-0.6c0.3,0.2,0.5,0.3,0.5,0.3c0.3,0.2,0.7,0,0.9-0.3
	C12.8,68,12.6,67.6,12.3,67.4z M8.7,64c0-2.3,0.8-7.9,1.7-8.6c0.3,0.3,0.7,1.5,1,2.8H11c-0.2,0-0.3,0.1-0.3,0.3
	c0,0.2,0.1,0.3,0.3,0.3h0.4c0.1,0.5,0.2,1.1,0.3,1.7H11c-0.2,0-0.3,0.1-0.3,0.3c0,0.2,0.1,0.3,0.3,0.3h0.8c0.1,0.6,0.1,1.2,0.2,1.7
	h-1c-0.2,0-0.3,0.1-0.3,0.3c0,0.2,0.1,0.3,0.3,0.3h1c0,0.2,0,0.3,0,0.4c0,1.6-1.4,1.7-1.7,1.7C10.1,65.7,8.7,65.6,8.7,64z"/>
<g>
	<path fill="#3D3D3C" d="M7,83.3c-0.2,0-0.3,0.2-0.3,0.3C6.7,83.9,6.8,84,7,84c0.2,0,0.3-0.1,0.3-0.3C7.3,83.5,7.2,83.3,7,83.3z"/>
	<path fill="#3D3D3C" d="M9,84c0.2,0,0.3-0.1,0.3-0.3c0-0.2-0.2-0.3-0.3-0.3c-0.2,0-0.3,0.2-0.3,0.3C8.7,83.9,8.8,84,9,84z"/>
	<path fill="#3D3D3C" d="M16,77.3c-0.4-2.3-1.8-2.7-2.6-2.7c-0.1,0-0.1,0-0.2,0c0.1-0.3,0.2-0.7,0.2-1c0-0.4,0-0.7-0.1-1.2
		c0-0.2-0.2-0.4-0.3-0.5c-0.3-0.2-0.7-0.1-0.9,0.3L12,72.5c-0.1,0.2-0.2,0.4-0.4,0.6c-0.2,0.2-0.3,0.3-0.5,0.4
		c-0.3,0.2-0.7,0.1-1,0.1c-0.1,0-0.3,0-0.4,0c-0.5-0.1-1.1-0.2-1.7-0.2c-0.7,0-1.2,0.1-1.7,0.2c-0.1,0-0.3,0-0.4,0
		c-0.3,0.1-0.6,0.1-1-0.1c-0.2-0.1-0.3-0.2-0.5-0.4C4.3,73,4.1,72.7,4,72.5l-0.1-0.2c-0.1-0.2-0.3-0.3-0.5-0.3
		c-0.4-0.1-0.7,0.2-0.8,0.5c-0.1,0.4-0.1,0.8-0.1,1.2c0,0.3,0.1,0.6,0.2,1c-0.1,0-0.1,0-0.2,0c-0.8,0-2.2,0.3-2.6,2.7
		C0,77.6,0.1,77.9,0.3,78c0.6,0.3,1.1,0.5,1.7,0.5c0.4,0,0.7-0.1,1-0.2c0.1,1,0.4,1.7,0.8,2.4c0.3,0.5,0.5,1,0.6,1.6
		c-0.1,0.2-0.3,0.3-0.3,0.5C4,83,4,83.2,4,83.3V85c0,0.5,0.2,0.9,0.5,1.2c0.3,0.2,0.6,0.4,0.9,0.4c0.1,0.2,0.2,0.4,0.4,0.6
		C6.5,88,7.8,88,8,88c0,0,0,0,0,0c0.2,0,1.5,0,2.2-0.7c0.2-0.2,0.3-0.4,0.4-0.6c0.8-0.2,1.4-0.8,1.4-1.6v-1.7c0-0.2,0-0.3-0.1-0.5
		c-0.1-0.2-0.2-0.4-0.3-0.5c0.1-0.6,0.3-1.1,0.6-1.6c0.3-0.6,0.7-1.4,0.8-2.4c0.3,0.1,0.6,0.2,1,0.2c0.5,0,1.1-0.2,1.7-0.5
		C15.9,77.9,16,77.6,16,77.3z M2,77.2c-0.2,0-0.4,0-0.6-0.1C1.8,76,2.4,76,2.6,76c0.2,0,0.4,0,0.6,0.1C3,76.6,2.6,77.2,2,77.2z
		 M10.5,83.1L10.5,83.1c0.1,0.1,0.1,0.1,0.2,0.2c0,0,0,0.1,0,0.1V85c0,0.2-0.2,0.3-0.3,0.3l-0.1,0c-0.1,0-0.1,0-0.1,0
		c-0.6,0-1.7-0.3-1.8-0.3c-0.1,0-0.2,0-0.3,0c-0.1,0-0.2,0-0.2,0c-0.3,0.1-1.5,0.3-2,0.3c-0.1,0-0.2,0-0.3-0.1c0,0-0.1-0.1-0.1-0.2
		v-1.7c0,0,0,0,0-0.1c0,0,0-0.1,0.1-0.1L5.5,83C6,82.6,7,82.3,8,82.3C9,82.3,10,82.6,10.5,83.1z M8,86.7C8,86.7,8,86.7,8,86.7
		C8,86.7,8,86.7,8,86.7L8,86.7c-0.2,0-0.6,0-0.9-0.1c0.4-0.1,0.7-0.1,0.8-0.2c0.2,0,0.5,0.1,0.9,0.2C8.6,86.6,8.2,86.7,8,86.7
		C8,86.7,8,86.7,8,86.7z M11,80c-0.2,0.4-0.5,0.9-0.6,1.4C9.7,81.2,8.9,81,8,81c-0.9,0-1.7,0.2-2.4,0.5c-0.2-0.6-0.4-1-0.6-1.4
		c-0.3-0.6-0.6-1.2-0.6-2c0-2.1,0.6-3.3,3.7-3.3s3.7,1.3,3.7,3.3C11.7,78.8,11.4,79.4,11,80z M14,77.2c-0.6,0-1-0.6-1.2-1.1
		c0.2,0,0.4-0.1,0.6-0.1c0.2,0,0.9,0,1.2,1.1C14.4,77.1,14.2,77.2,14,77.2z"/>
	<path fill="#3D3D3C" d="M6.7,76.7C6.3,76.7,6,77,6,77.3C6,77.7,6.3,78,6.7,78c0.4,0,0.7-0.3,0.7-0.7C7.3,77,7,76.7,6.7,76.7z"/>
	<path fill="#3D3D3C" d="M9.3,76.7c-0.4,0-0.7,0.3-0.7,0.7C8.7,77.7,9,78,9.3,78c0.4,0,0.7-0.3,0.7-0.7C10,77,9.7,76.7,9.3,76.7z"/>
</g>
<g id="ban_11_">
	<path fill="#BA4B49" d="M17.3,81.3c-1.8,0-3.3,1.5-3.3,3.3c0,1.8,1.5,3.3,3.3,3.3c1.8,0,3.3-1.5,3.3-3.3
		C20.7,82.8,19.2,81.3,17.3,81.3z M17.3,82.2c0.5,0,0.9,0.1,1.3,0.4L15.3,86c-0.2-0.4-0.4-0.8-0.4-1.3C14.9,83.3,16,82.2,17.3,82.2z
		 M17.3,87.1c-0.5,0-0.9-0.1-1.3-0.4l3.4-3.4c0.2,0.4,0.4,0.8,0.4,1.3C19.8,86,18.7,87.1,17.3,87.1z"/>
</g>
<path fill="#3D3D3C" d="M16,172.4c-0.2-2.9-2.3-3.3-2.4-3.4c0,0-0.1,0-0.1,0c-0.5-2-2.1-2.3-2.2-2.3c0,0-0.1,0-0.1,0
	c-0.5-2-2.1-2.3-2.2-2.3c-0.3-0.1-0.6,0.1-0.7,0.4l-2.6-2.6c-0.1-0.1-0.3-0.1-0.5,0c-0.1,0.1-0.1,0.3,0,0.5l2.8,2.8c0,0,0,0,0,0
	c-0.1,0.3-0.2,0.7-0.3,1.1c-0.1-0.2-0.3-0.5-0.5-0.7c-1.2-1.2-2.7-1.4-3.4-1.4c-0.4,0-0.7,0.1-0.7,0.1c0,0,0,0-0.1,0l-2.4-2.4
	c-0.1-0.1-0.3-0.1-0.5,0c-0.1,0.1-0.1,0.3,0,0.5l2.4,2.5c0,0,0,0,0,0c0,0.1-0.4,2.3,1.4,4.1c0.2,0.2,0.4,0.4,0.7,0.5
	c-0.4,0.1-0.8,0.2-1.1,0.3c0,0,0,0,0-0.1l-2.8-2.8c-0.1-0.1-0.3-0.1-0.5,0c-0.1,0.1-0.1,0.3,0,0.5l2.6,2.6c-0.3,0.1-0.5,0.4-0.4,0.7
	c0,0.1,0.4,1.7,2.3,2.2c0,0,0,0.1,0,0.1c0,0.1,0.4,1.7,2.3,2.2c0,0,0,0.1,0,0.1c0,0.1,0.5,2.2,3.4,2.4c0.1,0,0.2,0,0.3,0
	c0,0,0,0,0,0c1.8,0,3.9-0.8,4-0.8c0.1,0,0.2-0.1,0.3-0.2c0.1-0.1,0.2-0.2,0.3-0.3C15.2,176.6,16.1,174.2,16,172.4z M14.7,172.4
	c0,0.9-0.2,2.1-0.4,2.8c0,0-0.1-0.1-0.1-0.1c-0.3-0.4-0.6-0.9-0.7-1.6c-0.1-0.6,0.2-1.9,0.5-3C14.2,170.9,14.6,171.4,14.7,172.4z
	 M12.3,170.1c0,0.9-0.2,2.1-0.4,2.8c-0.4-0.4-0.8-0.9-0.9-1.7c-0.1-0.6,0.2-1.9,0.5-3C11.9,168.6,12.3,169.1,12.3,170.1z M9.2,165.9
	c0.3,0.3,0.7,0.8,0.8,1.8c0.1,0.9-0.2,2.1-0.4,2.8c0,0,0,0,0,0c-0.3-0.4-0.7-0.9-0.8-1.7C8.6,168.3,8.9,167,9.2,165.9z M3.8,165.8
	c0.7,0,1.6,0.2,2.4,1c0.6,0.6,0.9,1.7,0.9,2.3c-0.7-0.1-1.7-0.3-2.3-0.9C3.9,167.4,3.8,166.4,3.8,165.8z M3.9,171.2
	c0.9-0.3,2.3-0.6,3-0.5c0.8,0.1,1.3,0.5,1.7,0.9c-0.8,0.2-1.9,0.5-2.8,0.4C4.7,171.9,4.2,171.6,3.9,171.2z M6.3,173.6
	c0.9-0.3,2.3-0.6,3-0.5c0.8,0.1,1.3,0.5,1.7,0.9c-0.8,0.2-1.9,0.5-2.8,0.4C7.1,174.3,6.5,173.9,6.3,173.6z M10.4,176.7
	c-1-0.1-1.6-0.4-1.8-0.8c0.9-0.3,2.3-0.6,3-0.5c0.7,0.1,1.2,0.4,1.6,0.8c0,0,0.1,0.1,0.1,0.1C12.5,176.4,11.4,176.7,10.4,176.7z"/>
<g id="ban_4_">
	<path fill="#BA4B49" d="M20.3,171.3c-1.8,0-3.3,1.5-3.3,3.3c0,1.8,1.5,3.3,3.3,3.3c1.8,0,3.3-1.5,3.3-3.3
		C23.6,172.8,22.1,171.3,20.3,171.3z M20.3,172.2c0.5,0,0.9,0.1,1.3,0.4l-3.4,3.4c-0.2-0.4-0.4-0.8-0.4-1.3
		C17.8,173.3,18.9,172.2,20.3,172.2z M20.3,177.1c-0.5,0-0.9-0.1-1.3-0.4l3.4-3.4c0.2,0.4,0.4,0.8,0.4,1.3
		C22.7,176,21.6,177.1,20.3,177.1z"/>
</g>
<g>
	<path fill="#3D3D3C" d="M15.9,217.8c0.2-0.3,0-0.7-0.3-0.9c-0.1,0-1.7-0.9-3.2-0.9c-0.8,0-1.4,0.2-1.8,0.7
		c-0.1,0.1-0.2,0.2-0.3,0.3c-0.7-0.2-1.5-0.3-2.3-0.3c-0.8,0-1.5,0.1-2.3,0.3c-0.1-0.1-0.2-0.2-0.3-0.3c-0.5-0.4-1.1-0.7-1.9-0.7
		c-1.5,0-3.1,0.8-3.2,0.9c-0.3,0.2-0.5,0.6-0.3,0.9c0.1,0.2,0.7,1.3,1.6,2.2c-0.9,1.2-1.4,2.8-1.4,4.4c0,4.2,3.4,7.7,7.7,7.7
		c4.2,0,7.7-3.4,7.7-7.7c0-1.6-0.5-3.1-1.4-4.4C15.2,219.1,15.8,218,15.9,217.8z M10,221.3c0.6,0,1,0.4,1,1c0,0.6-0.4,1-1,1
		c-0.6,0-1-0.4-1-1C9,221.8,9.4,221.3,10,221.3z M7,222.3c0,0.6-0.5,1-1,1c-0.6,0-1-0.4-1-1c0-0.6,0.4-1,1-1
		C6.6,221.3,7,221.8,7,222.3z M3.5,217.3c0.4,0,0.7,0.1,0.9,0.3c0.7,0.7,0.8,1.2,0.9,1.3c-0.1,0.1-0.5,0.4-1.4,0.6
		c-0.8,0.1-1.7-0.9-2.3-1.7C2.2,217.6,2.9,217.3,3.5,217.3z M8,230c-2,0-3.7-1.1-3.7-2.4c0-1.3,2.4-3.1,3.7-3.1
		c1.2,0,3.7,1.7,3.7,3.1S10,230,8,230z M12.1,219.5c-1-0.2-1.3-0.5-1.4-0.6c0-0.2,0.1-0.6,0.9-1.3c0.2-0.2,0.5-0.3,0.9-0.3
		c0.7,0,1.4,0.2,1.9,0.4C13.8,218.6,12.9,219.7,12.1,219.5z"/>
	<path fill="#3D3D3C" d="M7,227c-0.4,0-0.7,0.3-0.7,0.7c0,0.4,0.3,0.7,0.7,0.7c0.4,0,0.7-0.3,0.7-0.7C7.7,227.3,7.4,227,7,227z"/>
	<path fill="#3D3D3C" d="M9,227c-0.4,0-0.7,0.3-0.7,0.7c0,0.4,0.3,0.7,0.7,0.7c0.4,0,0.7-0.3,0.7-0.7C9.7,227.3,9.4,227,9,227z"/>
</g>
<g id="ban_5_">
	<path fill="#BA4B49" d="M20,225.3c-1.8,0-3.3,1.5-3.3,3.3c0,1.8,1.5,3.3,3.3,3.3c1.8,0,3.3-1.5,3.3-3.3
		C23.3,226.8,21.8,225.3,20,225.3z M20,226.2c0.5,0,0.9,0.1,1.3,0.4l-3.4,3.4c-0.2-0.4-0.4-0.8-0.4-1.3
		C17.5,227.3,18.6,226.2,20,226.2z M20,231.1c-0.5,0-0.9-0.1-1.3-0.4l3.4-3.4c0.2,0.4,0.4,0.8,0.4,1.3C22.4,230,21.3,231.1,20,231.1
		z"/>
</g>
<g>
	<g>
		<path fill="#3D3D3C" d="M15.1,198.9c-0.5-0.5-1.9-0.9-3.3-0.9c-1.6,0-2.9,0.5-3.8,1.4c-0.8,0.8-1.1,1.7-1.3,2.5
			c-0.2,0.7-0.4,1.3-0.9,1.9c-0.5,0.5-1.2,0.7-1.9,0.9c-0.8,0.2-1.7,0.5-2.5,1.3c-2.1,2.1-1.4,6.1-0.5,7.1c0.5,0.5,1.9,0.9,3.3,0.9
			c1.6,0,2.9-0.5,3.8-1.4c0.8-0.8,1.1-1.7,1.3-2.5c0.2-0.7,0.4-1.3,0.9-1.9s1.2-0.7,1.9-0.9c0.8-0.2,1.7-0.5,2.5-1.3
			C16.7,203.9,16,199.8,15.1,198.9z M14.2,205.5c-0.7,0.7-1.5,0.9-2.3,1.2c-0.7,0.2-1.5,0.4-2.2,1.1c-0.7,0.6-0.9,1.4-1.1,2.2
			c-0.2,0.8-0.4,1.5-1.2,2.3c-1,1-2.5,1.2-3.4,1.2c-1.3,0-2.5-0.4-2.8-0.7c-0.6-0.7-1.3-4.4,0.5-6.2c0.7-0.7,1.5-0.9,2.3-1.2
			c0.7-0.2,1.5-0.4,2.2-1.1c0.7-0.7,0.9-1.4,1.1-2.2c0.2-0.8,0.4-1.5,1.2-2.3c1-1,2.5-1.1,3.3-1.1c1.3,0,2.5,0.4,2.8,0.7
			C15.3,200.1,16,203.7,14.2,205.5z M12.4,200v-0.6c-0.3,0-1.6,0-2.1,0.5l0.4,0.5C10.9,200.1,11.7,200,12.4,200z M8.8,203.1
			C8.8,203.2,8.8,203.2,8.8,203.1c0-0.1,0-0.9,0.1-1.6l-0.6-0.1c-0.3,1.7,0,2,0.1,2.1L8.8,203.1z M11.8,201.4l-0.1-0.6
			c-0.1,0-1.3,0.3-1.6,1.1l0.6,0.2C10.8,201.7,11.6,201.4,11.8,201.4z M6.9,204.6c-0.3,0.5-0.6,1-0.9,1v0.6c0.6,0,1.2-0.9,1.5-1.3
			L6.9,204.6z M3.8,206.8l0.5-0.5c-0.2-0.2-0.9-0.5-1.6,0.2l0.5,0.5C3.5,206.6,3.7,206.8,3.8,206.8z M1.4,207.9c0,0,0,1.4,0.3,2.2
			l0.6-0.2c-0.2-0.6-0.2-2-0.2-2H1.4z M5.1,207.8l-0.3-0.6c0,0-1,0.5-1.3,1.3l0.6,0.2C4.2,208.3,4.9,207.9,5.1,207.8z M3.6,211.3
			v0.6c0,0,1.5,0,2-0.5l-0.5-0.5C5,211.2,4,211.3,3.6,211.3z M7,208.2C7,208.1,7,208.1,7,208.2c0,0.1,0,0.9-0.1,1.6l0.6,0.1
			c0.3-1.7,0-2-0.1-2.1L7,208.2z M4,209.9l0.1,0.6c0.1,0,1.3-0.3,1.6-1.1l-0.6-0.2C4.9,209.6,4.2,209.9,4,209.9z M8.4,206.4l0.5,0.3
			c0.3-0.5,0.6-1,0.9-1v-0.6C9.1,205.1,8.6,206,8.4,206.4z M12,204.5l-0.2,0.2l-0.2,0.2c0.1,0.1,0.4,0.3,0.6,0.3s0.6-0.1,1-0.5
			l-0.5-0.5C12.3,204.7,12,204.5,12,204.5z M13.5,201.4c0.2,0.6,0.2,2,0.2,2h0.6c0,0,0-1.5-0.3-2.2L13.5,201.4z M12.3,202.8
			l-0.6-0.2c-0.2,0.5-0.7,0.8-1,1l0.3,0.6C11.1,204.1,12,203.6,12.3,202.8z"/>
	</g>
</g>
<g id="ban_8_">
	<path fill="#BA4B49" d="M17.3,207.3c-1.8,0-3.3,1.5-3.3,3.3c0,1.8,1.5,3.3,3.3,3.3c1.8,0,3.3-1.5,3.3-3.3
		C20.6,208.8,19.1,207.3,17.3,207.3z M17.3,208.2c0.5,0,0.9,0.1,1.3,0.4l-3.4,3.4c-0.2-0.4-0.4-0.8-0.4-1.3
		C14.8,209.3,15.9,208.2,17.3,208.2z M17.3,213.1c-0.5,0-0.9-0.1-1.3-0.4l3.4-3.4c0.2,0.4,0.4,0.8,0.4,1.3
		C19.7,212,18.6,213.1,17.3,213.1z"/>
</g>
<path fill="#3D3D3C" d="M6.7,189.3c0-0.4-0.3-0.7-0.7-0.7c-0.4,0-0.7,0.3-0.7,0.7c0,0.4,0.3,0.7,0.7,0.7
	C6.4,190,6.7,189.7,6.7,189.3z"/>
<path fill="#3D3D3C" d="M10,188.7c-0.4,0-0.7,0.3-0.7,0.7c0,0.4,0.3,0.7,0.7,0.7c0.4,0,0.7-0.3,0.7-0.7
	C10.7,189,10.4,188.7,10,188.7z"/>
<path fill="#3D3D3C" d="M9.3,191.7H6.7c-0.2,0-0.3,0.1-0.3,0.3c0,0.5,0.4,1,1,1.2v0.1c0,0.4,0.3,0.7,0.7,0.7c0.4,0,0.7-0.3,0.7-0.7
	v-0.1c0.6-0.2,1-0.7,1-1.2C9.7,191.8,9.5,191.7,9.3,191.7z"/>
<path fill="#3D3D3C" d="M16,187c-0.4-1.4-1.2-2-1.9-2.2c0.1-0.3,0.2-0.7,0.2-1c0-1.3-1.1-2.4-2.4-2.4c-0.4,0-0.8,0.1-1.1,0.3
	c-0.7-1-1.7-1.6-2.8-1.6c-1.1,0-2.2,0.6-2.8,1.7c-0.3-0.2-0.7-0.3-1.1-0.3c-1.3,0-2.4,1.1-2.4,2.4c0,0.3,0.1,0.7,0.2,1
	c-0.7,0.2-1.4,0.8-1.8,2.2c-0.1,0.3,0,0.6,0.3,0.8c0.7,0.5,1.3,0.7,2,0.7c0.1,0,0.3,0,0.4,0v0.3c0,4,2.4,7.3,5.3,7.3
	c2.9,0,5.3-3.3,5.3-7.3v-0.3c0.1,0,0.3,0,0.4,0c0.6,0,1.3-0.2,2-0.7C15.9,187.6,16.1,187.3,16,187z M4.1,182.7
	c0.3,0,0.6,0.1,0.8,0.4c0.2,0.2,0.4,0.3,0.6,0.2c0.2,0,0.4-0.2,0.5-0.4c0.4-1,1.1-1.6,2-1.6c0.8,0,1.5,0.6,1.9,1.5
	c0.1,0.2,0.3,0.4,0.5,0.4c0.2,0,0.5,0,0.6-0.2c0.2-0.2,0.5-0.4,0.8-0.4c0.6,0,1.1,0.5,1.1,1.1c0,0.5-0.3,0.9-0.7,1
	c-0.3,0.1-0.5,0.4-0.4,0.7c0,0,0,0.1,0,0.1c0,0.4-0.3,0.8-0.7,0.8c-0.2,0-0.4-0.1-0.5-0.2c-0.1-0.1-0.3-0.2-0.5-0.2
	c-0.2,0-0.4,0.1-0.5,0.3c-0.8,1.1-2.3,1.1-3.1,0c-0.1-0.2-0.3-0.3-0.5-0.3c0,0,0,0,0,0c-0.2,0-0.4,0.1-0.5,0.2
	c-0.1,0.2-0.3,0.2-0.5,0.2c-0.4,0-0.7-0.3-0.8-0.7c0,0,0-0.1,0-0.1c0-0.3-0.2-0.6-0.4-0.7c-0.4-0.2-0.7-0.6-0.7-1
	C3,183.2,3.5,182.7,4.1,182.7z M1.5,186.9c0.4-0.8,0.9-0.9,1.2-0.9c0,0,0.1,0,0.1,0c0,0.3,0.1,0.5,0.3,0.7c-0.2,0.2-0.5,0.4-0.9,0.4
	C2,187.1,1.8,187,1.5,186.9z M12,188.7c0,3.3-1.8,6-4,6c-2.2,0-4-2.7-4-6v-0.9c0.1-0.1,0.1-0.1,0.2-0.2c0.2,0.1,0.5,0.1,0.7,0.1
	c0.3,0,0.6-0.1,0.9-0.2c0.6,0.6,1.4,0.9,2.2,0.9c0.8,0,1.6-0.3,2.2-0.9c0.3,0.1,0.6,0.2,0.9,0.2c0.3,0,0.5,0,0.7-0.1
	c0.1,0.1,0.1,0.1,0.2,0.2L12,188.7L12,188.7z M13.7,187.1c-0.4,0-0.6-0.2-0.9-0.4c0.1-0.2,0.2-0.5,0.3-0.7c0,0,0.1,0,0.1,0
	c0.4,0,0.9,0.1,1.2,0.9C14.2,187,14,187.1,13.7,187.1z"/>
<path fill="#BA4B49" d="M18.6,189.3c-1.8,0-3.3,1.5-3.3,3.3c0,1.8,1.5,3.3,3.3,3.3c1.8,0,3.3-1.5,3.3-3.3
	C22,190.8,20.5,189.3,18.6,189.3z M18.6,190.2c0.5,0,0.9,0.1,1.3,0.4l-3.4,3.4c-0.2-0.4-0.4-0.8-0.4-1.3
	C16.2,191.3,17.3,190.2,18.6,190.2z M18.6,195.1c-0.5,0-0.9-0.1-1.3-0.4l3.4-3.4c0.2,0.4,0.4,0.8,0.4,1.3
	C21.1,194,20,195.1,18.6,195.1z"/>
<g id="chicken_1_">
	<path fill="#3D3D3C" d="M9.6,247.1c0.3,0.1,0.7,0.2,1.1,0.2c1.5,0,2.7-1.2,2.7-2.7c0-0.5-0.1-1-0.4-1.4
		C11.7,244,10.4,245.1,9.6,247.1z"/>
	<path fill="#3D3D3C" d="M15.8,241l-2.2-1.3c-0.8-1.9-2.4-3.1-4.2-3.1c-2,0-5.2,1.3-9.3,7.6c-0.1,0.2-0.1,0.4,0.1,0.5l7.7,5.2
		c0.1,0,0.1,0.1,0.2,0.1c0,0,0.1,0,0.1,0c0.1-0.1,0.2-0.2,0.2-0.3c0.6-7.3,7.1-8,7.4-8c0.1,0,0.3-0.1,0.3-0.3
		C16,241.3,16,241.1,15.8,241z M10,240c-0.4,0-0.7-0.3-0.7-0.7c0-0.4,0.3-0.7,0.7-0.7c0.4,0,0.7,0.3,0.7,0.7
		C10.7,239.7,10.4,240,10,240z"/>
	<path fill="#3D3D3C" d="M9.4,236c0.9,0,1.8,0.3,2.6,0.8c0,0,0-0.1,0-0.1c0-1.1-0.9-2-2-2c-0.2,0-0.3,0-0.5,0.1
		C9.2,234.3,8.6,234,8,234c-0.9,0-1.6,0.6-1.9,1.4c-0.8,0.1-1.4,0.8-1.4,1.6c0,0.3,0.1,0.6,0.2,0.8C6.7,236.4,8.2,236,9.4,236z"/>
</g>
<g id="ban_6_">
	<path fill="#BA4B49" d="M18.6,243.3c-1.8,0-3.3,1.5-3.3,3.3c0,1.8,1.5,3.3,3.3,3.3c1.8,0,3.3-1.5,3.3-3.3
		C22,244.8,20.5,243.3,18.6,243.3z M18.6,244.2c0.5,0,0.9,0.1,1.3,0.4l-3.4,3.4c-0.2-0.4-0.4-0.8-0.4-1.3
		C16.2,245.3,17.3,244.2,18.6,244.2z M18.6,249.1c-0.5,0-0.9-0.1-1.3-0.4l3.4-3.4c0.2,0.4,0.4,0.8,0.4,1.3
		C21.1,248,20,249.1,18.6,249.1z"/>
</g>
<path fill="#3D3D3C" d="M15.1,264.4c-0.4-0.1-0.9,0-1.3,0.1c-0.2-0.3-0.3-0.7-0.6-1l1.1-0.5c0.3-0.1,0.4-0.4,0.2-0.7
	c-0.1-0.3-0.4-0.4-0.7-0.2l-1.1,0.6c-0.1-0.1-0.2-0.3-0.3-0.4l1-0.5c0.3-0.1,0.4-0.4,0.2-0.7c-0.1-0.3-0.4-0.4-0.7-0.2l-1.1,0.6
	c-0.1-0.1-0.2-0.3-0.3-0.4l1-0.5c0.3-0.1,0.4-0.4,0.2-0.7c-0.1-0.3-0.4-0.4-0.7-0.2l-1.2,0.6c-0.2-0.3-0.5-0.6-0.7-0.8
	c0-0.6,0-1.1-0.1-1.7c-0.1-0.5-0.2-1.1-0.4-1.6c-0.1-0.4-0.3-0.8-0.4-1.2c-0.1-0.4-0.4-0.8-0.7-1.2c-0.9-0.9-2.2-1.2-2.8-0.5
	c-0.1,0.1-0.1,0.2,0,0.3l1.5,1.5c-0.5,0.2-1.1-0.5-1.1-0.5c-0.1-0.1-0.1-0.1-0.2-0.1c-0.1,0-0.1,0.1-0.2,0.2
	c-0.1,0.6,0.2,1.1,0.6,1.4c0.8,0.8,1.8,1.1,2.5,0.7c0.2,0.4,0.4,0.7,0.5,1.1c0.1,0.2,0.2,0.5,0.2,0.7c-1.2-1.1-2.1-1.4-2.8-1.3
	c0-0.1-0.1-0.2-0.1-0.2c-0.1-0.1-0.3-0.2-0.5-0.1c-0.2-0.2-0.4-0.5-0.6-0.7c-0.3-0.4-0.5-0.8-0.7-1.2c-0.4-0.8-0.7-1.8-0.7-2.7
	c0,0,0,0-0.1-0.1c0,0-0.1,0-0.1,0.1c0,1,0.2,2,0.5,2.9c0.2,0.5,0.4,0.9,0.7,1.3c0.2,0.3,0.4,0.6,0.6,0.8c-0.1,0.2,0,0.4,0.1,0.5
	c-0.1-0.1-0.4-0.2-0.5-0.1c-0.3-0.2-0.5-0.4-0.8-0.6c-0.4-0.3-0.9-0.5-1.3-0.7c-0.9-0.4-1.9-0.6-2.9-0.5c0,0-0.1,0-0.1,0.1
	c0,0,0,0.1,0,0.1c1,0,1.9,0.3,2.7,0.7c0.4,0.2,0.8,0.5,1.2,0.7c0.3,0.2,0.5,0.4,0.7,0.6c0,0.2,0,0.4,0.1,0.5
	c0.1,0.1,0.1,0.1,0.2,0.1c-0.2,0.7,0.1,1.6,1.3,2.8c-0.2-0.1-0.5-0.1-0.7-0.2c-0.4-0.1-0.8-0.3-1.1-0.5c0.3-0.7,0-1.7-0.7-2.5
	c-0.3-0.3-0.8-0.7-1.4-0.6c-0.1,0-0.1,0.1-0.2,0.2c0,0.1,0,0.2,0.1,0.2c0,0,0.6,0.6,0.5,1.1l-1.5-1.5c-0.1-0.1-0.2-0.1-0.3,0
	c-0.7,0.7-0.4,1.9,0.5,2.8c0.4,0.4,0.8,0.6,1.2,0.8c0.4,0.2,0.8,0.3,1.2,0.4c0.5,0.2,1.1,0.3,1.6,0.4c0.6,0.1,1.1,0.1,1.7,0.1
	c0.3,0.2,0.5,0.5,0.8,0.7L7.4,264c-0.1,0.3,0,0.6,0.2,0.7c0.1,0,0.2,0.1,0.2,0.1c0.2,0,0.4-0.1,0.5-0.3l0.5-1
	c0.1,0.1,0.3,0.2,0.4,0.3L8.7,265c-0.1,0.3,0,0.6,0.2,0.7c0.1,0,0.2,0.1,0.2,0.1c0.2,0,0.4-0.1,0.5-0.3l0.5-1
	c0.1,0.1,0.3,0.2,0.4,0.3l-0.6,1.1c-0.1,0.3,0,0.6,0.2,0.7c0.1,0,0.2,0.1,0.2,0.1c0.2,0,0.4-0.1,0.5-0.3l0.5-1.1
	c0.4,0.2,0.7,0.4,1,0.6c-0.1,0.4-0.2,0.9-0.1,1.3c0.2,0.6,0.8,1,1.4,0.8c0.2-0.1,0.4-0.3,0.5-0.5c0.4,0.1,0.7,0,1-0.2
	c0.2-0.2,0.3-0.6,0.2-1c0.2-0.1,0.4-0.3,0.5-0.5C16.1,265.2,15.8,264.6,15.1,264.4z"/>
<g id="ban_10_">
	<path fill="#BA4B49" d="M20,261.3c-1.8,0-3.3,1.5-3.3,3.3s1.5,3.3,3.3,3.3c1.8,0,3.3-1.5,3.3-3.3S21.8,261.3,20,261.3z M20,262.2
		c0.5,0,0.9,0.1,1.3,0.4l-3.4,3.4c-0.2-0.4-0.4-0.8-0.4-1.3C17.6,263.3,18.6,262.2,20,262.2z M20,267.1c-0.5,0-0.9-0.1-1.3-0.4
		l3.4-3.4c0.2,0.4,0.4,0.8,0.4,1.3C22.4,266,21.4,267.1,20,267.1z"/>
</g>
<g>
	<path fill="#3D3D3C" d="M3.9,278.5c-0.5-0.2-1.1,0-1.3,0.5c-0.2,0.5,0,1.1,0.5,1.3c0.5,0.2,1.1,0,1.3-0.5
		C4.6,279.3,4.4,278.7,3.9,278.5z"/>
	<path fill="#3D3D3C" d="M4.6,276.6c-0.4-0.2-0.8,0-1,0.4c-0.2,0.4,0,0.8,0.4,1c0.4,0.2,0.8,0,1-0.4C5.2,277.2,5,276.8,4.6,276.6z"
		/>
	<path fill="#3D3D3C" d="M2.9,280.8c-0.4-0.2-0.8,0-1,0.4c-0.2,0.4,0,0.8,0.4,1c0.4,0.2,0.8,0,1-0.4C3.5,281.3,3.3,280.9,2.9,280.8z
		"/>
	<path fill="#3D3D3C" d="M2.2,282.6c-0.3-0.1-0.5,0-0.6,0.3c-0.1,0.3,0,0.5,0.3,0.6c0.3,0.1,0.5,0,0.6-0.3
		C2.5,283,2.4,282.7,2.2,282.6z"/>
	<path fill="#3D3D3C" d="M16,281.6c-0.1-0.7-0.4-3.9-2.9-6.6c-1.6-1.8-4.1-2.2-5-2.3c-0.9-1.3-2.8-2.5-3.1-2.6
		c-0.3-0.2-0.6-0.1-0.8,0.1c-0.2,0.2-0.2,0.5-0.1,0.7C4,271,3.9,271,3.9,271c-0.2,0.1-0.4,0.3-0.6,0.4c-0.3,0.3-0.6,0.7-0.7,1.2
		c-0.1,0.4-0.1,0.7-0.3,0.9c-0.1,0.2-0.3,0.3-0.5,0.4c-0.5,0.1-1-0.3-1-0.7c-0.1-0.5,0.3-1,0.9-1.1c0.2,0,0.3-0.1,0.3-0.3
		c0-0.2-0.1-0.3-0.3-0.3l0,0c-0.4,0-0.9,0.2-1.2,0.5c-0.3,0.3-0.5,0.8-0.5,1.3c0,0.5,0.2,1,0.6,1.3c0.4,0.3,0.9,0.5,1.4,0.4
		c0.6-0.1,1-0.4,1.3-0.8c0.3-0.4,0.4-0.9,0.5-1.1c0.1-0.2,0.3-0.4,0.5-0.6c0.1-0.1,0.2-0.1,0.3-0.2c0,0,0.1,0,0.1,0
		c0.3,1.1,0.2,1.9,0.1,2.2c-0.9,0.4-3,1.7-3.9,3.8c-1.6,3.8-0.5,7.2-0.4,7.3c0.1,0.2,0.2,0.3,0.4,0.4c0.1,0,0.2,0.1,0.3,0.1
		c0.1,0,0.2,0,0.3-0.1c0.1-0.1,3.3-1.7,4.9-5.5c1-2.5,0-5.3-0.2-5.8c0.1-0.4,0.2-1.2,0.1-2.1c0.4,0.3,0.7,0.6,0.9,1
		c0,0.7,0.1,3.5,1.8,5.4c2.8,3,6.3,3.5,6.4,3.5c0,0,0.1,0,0.1,0c0,0,0,0,0,0c0.4,0,0.7-0.3,0.7-0.7C16,281.7,16,281.6,16,281.6z
		 M5,279.9c-0.9,2.3-2.6,3.7-3.5,4.4c-0.2-1.1-0.3-3.3,0.6-5.5c0.6-1.5,2.1-2.5,2.9-3C5.3,276.7,5.6,278.4,5,279.9z M8.3,275.5
		c-0.2-0.2-0.3-0.6-0.2-0.9c0-0.1,0.1-0.1,0.2-0.1c0.1,0,0.1,0.1,0.1,0.1l0,0c0.1,0.4,0.4,0.6,0.7,0.7c0.2,0,0.3-0.1,0.5-0.1
		c0.1-0.1,0.3-0.2,0.3-0.4c0-0.1,0.1-0.1,0.2-0.1c0.1,0,0.1,0.1,0.1,0.1l0,0c0.1,0.3,0,0.6-0.3,0.8c-0.2,0.2-0.6,0.4-0.9,0.3
		C8.8,275.9,8.4,275.7,8.3,275.5z M10.3,278.5c-0.4,0-0.8-0.2-1-0.6c-0.3-0.3-0.4-0.7-0.3-1.1c0-0.1,0.1-0.1,0.2-0.1
		c0.1,0,0.1,0.1,0.1,0.1l0,0c0.1,0.3,0.2,0.5,0.4,0.7c0.2,0.2,0.4,0.2,0.7,0.3c0.2,0,0.4-0.1,0.6-0.2c0.2-0.1,0.4-0.3,0.5-0.6
		c0-0.1,0.1-0.1,0.2-0.1c0.1,0,0.1,0.1,0.1,0.1l0,0c0.1,0.4-0.1,0.8-0.4,1.1C11.1,278.3,10.7,278.5,10.3,278.5z M13.1,279.9
		c-0.2,0.2-0.5,0.3-0.9,0.3c-0.3,0-0.6-0.2-0.8-0.4c-0.2-0.2-0.3-0.6-0.2-0.8c0-0.1,0.1-0.2,0.2-0.1c0.1,0,0.1,0.1,0.1,0.1v0
		c0,0.2,0.1,0.4,0.2,0.5c0.1,0.1,0.3,0.2,0.5,0.2c0.2,0,0.3,0,0.5-0.2c0.1-0.1,0.3-0.3,0.3-0.5c0-0.1,0.1-0.1,0.2-0.1
		c0.1,0,0.1,0.1,0.1,0.1l0,0C13.4,279.3,13.3,279.7,13.1,279.9z M15,280.8c0,0.1-0.1,0.2-0.2,0.3c-0.2,0.2-0.4,0.2-0.6,0.2l-0.1,0
		c-0.1,0-0.1,0-0.2-0.1c-0.1-0.1-0.2-0.1-0.3-0.2c-0.1-0.2-0.2-0.4-0.2-0.6c0-0.1,0.1-0.2,0.2-0.1c0.1,0,0.1,0.1,0.1,0.1l0,0
		c0,0.1,0.1,0.2,0.2,0.3c0,0,0.1,0.1,0.1,0.1c0,0,0,0,0.1,0l0.1,0c0,0,0.2,0,0.3-0.1c0,0,0.1-0.1,0.1-0.1c0,0,0,0,0-0.1l0-0.1
		c0-0.1,0.1-0.1,0.2-0.1c0.1,0,0.1,0.1,0.1,0.2l0,0.1C15.1,280.7,15.1,280.7,15,280.8z"/>
</g>
<g id="ban_7_">
	<path fill="#BA4B49" d="M20,279.3c-1.8,0-3.3,1.5-3.3,3.3c0,1.8,1.5,3.3,3.3,3.3c1.8,0,3.3-1.5,3.3-3.3
		C23.3,280.8,21.8,279.3,20,279.3z M20,280.2c0.5,0,0.9,0.1,1.3,0.4l-3.4,3.4c-0.2-0.4-0.4-0.8-0.4-1.3
		C17.6,281.3,18.6,280.2,20,280.2z M20,285.1c-0.5,0-0.9-0.1-1.3-0.4l3.4-3.4c0.2,0.4,0.4,0.8,0.4,1.3C22.4,284,21.4,285.1,20,285.1
		z"/>
</g>
<g id="garlic">
	<path fill="#3D3D3C" d="M7.7,157c0.2,0,0.4,0,0.6,0c0.3,0.2,0.7,0.3,1.3,0.3c0.6,0,1-0.1,1.3-0.3c0.2,0,0.4,0,0.6,0
		c0.6,0,1.1-0.1,1.5-0.4c1.1,0,1.9-0.3,2.4-0.9c0.7-0.8,0.6-1.9,0.5-2.4c-0.3-2.3-3.9-4.8-4.5-5.2c-0.2-0.2-0.4-0.9,0.2-2.6
		c0.1-0.2,0-0.5-0.2-0.7c-0.1-0.1-0.9-0.9-1.8-0.9c-0.9,0-1.7,0.8-1.8,0.9c-0.2,0.2-0.2,0.4-0.2,0.7c0.6,1.7,0.4,2.4,0.2,2.6
		c-0.7,0.5-4.2,2.9-4.5,5.2c-0.1,0.5-0.2,1.6,0.5,2.4c0.5,0.6,1.3,0.9,2.4,0.9C6.7,156.9,7.2,157,7.7,157z M11.4,150.7
		c0.9,1,1.6,2.1,1.6,2.8c0,0.6,0,1.6-0.5,2c-0.1,0.1-0.3,0.2-0.6,0.2C12.3,154.3,11.9,152.3,11.4,150.7z M7.9,150.7
		c-0.5,1.7-0.9,3.7-0.5,5c-0.2,0-0.4-0.1-0.6-0.2c-0.5-0.4-0.5-1.3-0.5-2C6.3,152.7,7,151.7,7.9,150.7z M5.2,152.4
		c-0.1,0.4-0.2,0.7-0.2,1.1c0,0.5,0,1.1,0.2,1.7c-0.1-0.1-0.2-0.1-0.3-0.2c-0.3-0.4-0.2-1-0.2-1.3C4.7,153.2,4.9,152.8,5.2,152.4z
		 M14.4,154.9c-0.1,0.1-0.2,0.2-0.3,0.2c0.2-0.6,0.2-1.2,0.2-1.7c0-0.3-0.1-0.7-0.2-1.1c0.3,0.4,0.5,0.8,0.5,1.2
		C14.7,153.9,14.8,154.5,14.4,154.9z M9.7,156c-0.5,0-0.7-0.2-0.9-0.4c-0.7-1,0-3.7,0.9-5.9c0.8,2.2,1.5,4.9,0.9,5.9
		C10.4,155.8,10.2,156,9.7,156z"/>
	<path fill="#3D3D3C" d="M1.3,159.2c0.7,0.5,1.4,0.8,2.1,0.8l0,0c1.5,0,2.6-1.3,2.6-1.3c0.1-0.2,0.2-0.4,0.1-0.6
		c-0.1-0.2-0.3-0.4-0.5-0.4c-0.9-0.2-3.1-2.2-4.3-3.6c-0.2-0.2-0.4-0.3-0.7-0.2c-0.2,0.1-0.4,0.3-0.5,0.5
		C0.1,154.5-0.6,157.7,1.3,159.2z M1.3,156c0.8,0.8,1.9,1.8,2.9,2.4c-0.2,0.1-0.5,0.2-0.9,0.2c-0.4,0-0.8-0.2-1.2-0.5
		C1.5,157.7,1.4,156.8,1.3,156z"/>
</g>
<g id="ban_3_">
	<path fill="#BA4B49" d="M20.3,153.3c-1.8,0-3.3,1.5-3.3,3.3c0,1.8,1.5,3.3,3.3,3.3c1.8,0,3.3-1.5,3.3-3.3
		C23.6,154.8,22.1,153.3,20.3,153.3z M20.3,154.2c0.5,0,0.9,0.1,1.3,0.4l-3.4,3.4c-0.2-0.4-0.4-0.8-0.4-1.3
		C17.8,155.3,18.9,154.2,20.3,154.2z M20.3,159.1c-0.5,0-0.9-0.1-1.3-0.4l3.4-3.4c0.2,0.4,0.4,0.8,0.4,1.3
		C22.7,158,21.6,159.1,20.3,159.1z"/>
</g>
<g>
	<path fill="#3D3D3C" d="M5.4,133.2c0.2,0.1,0.6,0.3,0.8,0.5c0.3,0.2,0.6,0.4,0.8,0.6c0.5,0.4,1,0.9,1.5,1.4
		c0.1,0.1,0.3,0.1,0.4,0.1c0.2-0.1,0.2-0.3,0.1-0.5c-0.4-0.6-0.8-1.2-1.3-1.8c-0.2-0.3-0.5-0.6-0.7-0.8c-0.3-0.3-0.5-0.5-0.9-0.8
		l0,0c0,0-0.1-0.1-0.1-0.1c-0.4-0.2-0.8,0-1,0.4C4.8,132.6,5,133,5.4,133.2z"/>
	<path fill="#3D3D3C" d="M16,137.3c0-0.2-0.2-0.3-0.4-0.3l-3.2,0.6c-0.1-0.6-0.3-1.6-0.9-3c0,0,0,0,0-0.1c0-0.2,0.5-0.3,1-0.3
		c0.1,0,0.1,0,0.2,0c0.2,0,0.3-0.1,0.3-0.2c0-0.2,0-0.3-0.2-0.4c-1-0.6-1.8-0.6-2.1-0.6c-0.1-0.1-0.1-0.2-0.2-0.3
		c-0.1-0.2-0.1-0.4-0.2-0.6c-0.1-0.4-0.1-0.7-0.1-1.1c0-0.7,0.1-1.5,0.2-2.2c0-0.1,0-0.2-0.2-0.3l0,0c-0.6-0.2-1.3-0.3-1.9-0.3
		c-0.5,0-1,0-1.4,0.1c-1.2-1.1-3-2.4-5.3-2.4c-0.4,0-0.7,0-1.1,0.1c-0.1,0-0.2,0.1-0.3,0.2c-0.1,0.2-1.2,3.8,2,7
		c0.1,0.1,0.2,0.2,0.3,0.3c0,0,0,0,0,0l-0.6,1.1c0,0.1,0,0.1,0,0.2c0,0.2,0.2,0.7,0.8,0.8c0.1,0,0.2,0,0.3,0c0.4,0,0.6-0.2,0.7-0.2
		c0.1-0.1,0.1-0.1,0.1-0.2l0-0.7c1.1,0.9,2.1,1.6,3.1,2.1c0,0.4,0,1.1,0.6,2.1c0.1,0.1,0.2,0.2,0.3,0.2c0,0,0.1,0,0.1,0
		c0.1,0,0.2-0.2,0.2-0.4c0-0.3,0-1.1,0.3-1.1c0,0,0,0,0.1,0c1.4,0.6,2.5,0.8,3.1,0.8l-0.6,3.1c0,0.2,0.1,0.4,0.3,0.4c0,0,0,0,0.1,0
		c0.2,0,0.3-0.1,0.3-0.3c0.1-0.6,0.6-2.2,1.2-2.8c0.8-0.8,2.8-1.2,2.9-1.2C15.9,137.7,16,137.5,16,137.3z M9.8,130.7
		c-0.3,0-0.5-0.1-0.8-0.1c-0.1-0.2-0.3-0.3-0.4-0.5c0.4,0,0.8,0,1.2,0C9.8,130.3,9.8,130.5,9.8,130.7z M9.4,131.1c0.1,0,0.3,0,0.4,0
		c0,0,0,0,0,0c0,0.2,0,0.4,0,0.6C9.7,131.6,9.6,131.4,9.4,131.1z M8.4,128.9c0.5,0,1,0,1.5,0.2c0,0.2,0,0.4-0.1,0.6
		c-0.6-0.1-1.2-0.2-1.8-0.2c-0.2-0.2-0.4-0.4-0.6-0.6C7.8,128.9,8.1,128.9,8.4,128.9z M0.8,126.7c0,0,0.1,0,0.1,0
		c0.1,0.1,0.4,0.2,0.5,0.5c0.1,0.2,0.1,0.4,0,0.6c-0.1,0.2,0,0.4,0.2,0.4c0,0,0.1,0,0.1,0c0.1,0,0.2-0.1,0.3-0.2
		c0.2-0.4,0.2-0.7,0.1-1.1c0-0.1,0-0.1-0.1-0.1c0.3,0.3,0.7,0.6,1,0.9c0,0,0,0,0,0c0.3-0.3,0.7-0.3,0.9,0c0.3,0.3,0.3,0.7,0,0.9
		c0.4,0.4,0.8,0.7,1.1,1.1c-1.1,1.4-1.9,1.7-2.5,1.7c-0.9,0-1.5-1-1.5-1l0,0C0.4,128.7,0.7,127.2,0.8,126.7z M2,132
		c0.2,0.1,0.3,0.1,0.5,0.1c0,0,0,0,0.1,0c0.9,0,1.9-0.6,2.9-1.9c3.7,3.7,5.6,6.6,6.3,7.7c0,0,0,0,0,0c-1.2-0.1-4.9-0.9-9-5
		C2.4,132.6,2.2,132.3,2,132z"/>
	<path fill="#3D3D3C" d="M3.7,128.4c0.1-0.1,0.1-0.3,0-0.5c-0.1-0.1-0.3-0.1-0.5,0c-0.1,0.1-0.1,0.3,0,0.5
		C3.3,128.5,3.5,128.5,3.7,128.4z"/>
</g>
<g id="ban_2_">
	<path fill="#BA4B49" d="M20.3,135.3c-1.8,0-3.3,1.5-3.3,3.3c0,1.8,1.5,3.3,3.3,3.3c1.8,0,3.3-1.5,3.3-3.3
		C23.6,136.8,22.1,135.3,20.3,135.3z M20.3,136.2c0.5,0,0.9,0.1,1.3,0.4l-3.4,3.4c-0.2-0.4-0.4-0.8-0.4-1.3
		C17.8,137.3,18.9,136.2,20.3,136.2z M20.3,141.1c-0.5,0-0.9-0.1-1.3-0.4l3.4-3.4c0.2,0.4,0.4,0.8,0.4,1.3
		C22.7,140,21.6,141.1,20.3,141.1z"/>
</g>
<g id="_x36_8-food_-_egg" enable-background="new    ">
	<path fill="#3D3D3C" d="M6,108c-3.3,0-6,4.6-6,9c0,4.4,2.7,7,6,7s6-2.6,6-7C12,112.6,9.3,108,6,108z M6,123c-2.8,0-5-2.1-5-6
		c0-3.9,2.2-8,5-8c2.8,0,5,4.1,5,8C11,120.9,8.8,123,6,123z"/>
</g>
<g id="ban_1_">
	<path fill="#BA4B49" d="M16.1,117.3c-1.8,0-3.3,1.5-3.3,3.3c0,1.8,1.5,3.3,3.3,3.3c1.8,0,3.3-1.5,3.3-3.3
		C19.4,118.8,17.9,117.3,16.1,117.3z M16.1,118.2c0.5,0,0.9,0.1,1.3,0.4L14,122c-0.2-0.4-0.4-0.8-0.4-1.3
		C13.6,119.3,14.7,118.2,16.1,118.2z M16.1,123.1c-0.5,0-0.9-0.1-1.3-0.4l3.4-3.4c0.2,0.4,0.4,0.8,0.4,1.3
		C18.5,122,17.4,123.1,16.1,123.1z"/>
</g>
<g>
	<path fill="#3D3D3C" d="M16,90.6c0-0.1,0-0.1,0-0.2c0,0,0-0.1,0-0.1c0,0,0,0,0,0c0,0-0.1-0.1-0.1-0.1c0,0,0,0,0,0
		c-0.1-0.1-0.1-0.1-0.2-0.1c0,0,0,0,0,0c-0.1,0-0.1,0-0.2,0c0,0,0,0,0,0c0,0,0,0-0.1,0c0,0-0.1,0-0.1,0L0.5,93.4c0,0,0,0-0.1,0
		c0,0-0.1,0-0.1,0.1c0,0-0.1,0-0.1,0.1c0,0-0.1,0.1-0.1,0.1c0,0-0.1,0.1-0.1,0.1c0,0,0,0.1,0,0.1c0,0,0,0.1,0,0.1c0,0,0,0,0,0.1v7.3
		c0,0,0,0.1,0,0.1c0,0.2,0.8,4.6,8,4.6c0.1,0,0.2,0,0.3-0.1c0.1,0,0.2-0.1,0.2-0.1l7.3-7.3c0.1-0.1,0.2-0.3,0.2-0.5L16,90.6
		C16,90.7,16,90.6,16,90.6z M7.3,104.6c-5.1-0.2-5.9-3-6-3.4v-5.2c1,0.9,2.8,1.8,6,1.9L7.3,104.6L7.3,104.6z M7.7,96.7
		c-4.1-0.1-5.6-1.4-6.1-2.2L13,91.9L7.7,96.7z M14.7,97.7l-2.5,2.5c-0.2-0.8-0.6-1.3-1.2-1.3c-0.7,0-1.3,0.9-1.3,2
		c0,0.6,0.1,1.1,0.4,1.4l-1.4,1.4v-6.1l1-0.9c0.1,0.6,0.5,1,1,1c0.6,0,1-0.6,1-1.3c0-0.5-0.2-0.9-0.4-1.1l3.4-3.1L14.7,97.7
		L14.7,97.7z"/>
	<path fill="#3D3D3C" d="M13.1,97.7c0.5,0,0.8-0.4,0.8-1c0-0.6-0.4-1-0.8-1c-0.5,0-0.8,0.4-0.8,1C12.3,97.2,12.7,97.7,13.1,97.7z"/>
</g>
<g id="ban_12_">
	<path fill="#BA4B49" d="M18.6,99.3c-1.8,0-3.3,1.5-3.3,3.3c0,1.8,1.5,3.3,3.3,3.3c1.8,0,3.3-1.5,3.3-3.3
		C21.9,100.8,20.4,99.3,18.6,99.3z M18.6,100.2c0.5,0,0.9,0.1,1.3,0.4l-3.4,3.4c-0.2-0.4-0.4-0.8-0.4-1.3
		C16.1,101.3,17.2,100.2,18.6,100.2z M18.6,105.1c-0.5,0-0.9-0.1-1.3-0.4l3.4-3.4c0.2,0.4,0.4,0.8,0.4,1.3
		C21,104,19.9,105.1,18.6,105.1z"/>
</g>
<g>
	<path fill="#3D3D3C" d="M7.2,9.1C7.6,9.1,8,9,8.4,9c2.9-0.4,5-1.9,5.2-3.2c-0.2,0-0.5-0.1-0.7-0.1c-0.7-0.1-1.5-0.2-2.3-0.4
		C9.9,5,9.2,4.7,8.5,4.3c-1-0.5-2-1-3-1c-0.2,0-0.3,0-0.5,0c-1.3,0.2-2.1,0.5-2.4,1C2.3,4.8,2.3,5.6,2.4,6.7
		C2.5,7.9,4.4,9.1,7.2,9.1z M9.3,6.1c0.8,0,1.4,0.4,1.4,0.8c0,0.5-0.6,0.8-1.4,0.8c-0.8,0-1.4-0.4-1.4-0.8C7.9,6.4,8.5,6.1,9.3,6.1z
		"/>
	<path fill="#3D3D3C" d="M16,8.4c0-0.3,0-2.4,0-3h0c0-0.1,0-0.2,0-0.3c-0.2-1.4-1.6-1.6-2.8-1.7c-0.6-0.1-1.3-0.2-1.9-0.4
		c-0.6-0.2-1.1-0.5-1.7-0.8C8.3,1.6,6.7,0.8,4.7,1C2.7,1.3,1.3,2,0.6,3.2C0.1,4.1,0,5.1,0,6.1h0v4.2l0,0.1c0.3,2.6,3.4,4.4,7.2,4.4
		c0.5,0,1,0,1.4-0.1C13.1,14.1,16.3,11.4,16,8.4z M1.7,3.9c0.5-0.8,1.5-1.3,3.2-1.5c0.2,0,0.4,0,0.6,0c1.3,0,2.4,0.6,3.5,1.1
		c0.6,0.3,1.3,0.6,1.9,0.8c0.7,0.2,1.5,0.3,2.1,0.4c1.2,0.1,1.6,0.2,1.6,0.5c0.3,2.2-2.6,4.3-6.1,4.8c-0.4,0.1-0.9,0.1-1.3,0.1
		c-3.1,0-5.6-1.4-5.8-3.3C1.2,5.4,1.3,4.5,1.7,3.9z M8.5,13.3c-3.6,0.4-6.9-1-7.2-3.1V9.4c1.3,1.2,3.4,2,5.9,2c0.5,0,1,0,1.4-0.1
		c2.5-0.3,4.7-1.3,6-2.7C14.9,10.7,12.1,12.9,8.5,13.3z"/>
</g>
</svg>
