<?xml version="1.0" encoding="utf-8"?>
<!-- Generator: Adobe Illustrator 18.1.0, SVG Export Plug-In . SVG Version: 6.00 Build 0)  -->
<svg version="1.1" id="Layer_1" xmlns="http://www.w3.org/2000/svg" xmlns:xlink="http://www.w3.org/1999/xlink" x="0px" y="0px"
	 viewBox="0 0 40.7 400" enable-background="new 0 0 40.7 400" xml:space="preserve">
<g>
	<path fill="#3D3D3C" d="M10.5,117c-0.3,0-0.5,0.2-0.5,0.5c0,0.3,0.2,0.5,0.5,0.5c0.3,0,0.5-0.2,0.5-0.5C11,117.2,10.8,117,10.5,117
		z"/>
	<path fill="#3D3D3C" d="M13.5,118c0.3,0,0.5-0.2,0.5-0.5c0-0.3-0.2-0.5-0.5-0.5c-0.3,0-0.5,0.2-0.5,0.5C13,117.8,13.2,118,13.5,118
		z"/>
	<path fill="#3D3D3C" d="M24,108c-0.6-3.5-2.7-4-3.9-4c-0.1,0-0.2,0-0.3,0c0.2-0.5,0.3-1,0.3-1.5c0-0.6,0-1.1-0.1-1.8
		c-0.1-0.3-0.2-0.5-0.5-0.7c-0.5-0.3-1.1-0.1-1.3,0.4l-0.2,0.3c-0.1,0.3-0.3,0.6-0.6,0.9c-0.2,0.3-0.5,0.4-0.7,0.6
		c-0.5,0.2-1,0.2-1.5,0.1c-0.2,0-0.4-0.1-0.6-0.1c-0.7-0.2-1.6-0.2-2.6-0.2c-1,0-1.9,0.1-2.6,0.2c-0.2,0-0.4,0-0.6,0.1
		c-0.5,0.1-1,0.2-1.5-0.1c-0.3-0.1-0.5-0.3-0.7-0.6c-0.2-0.2-0.4-0.6-0.6-0.9l-0.2-0.3c-0.1-0.2-0.4-0.4-0.7-0.5
		c-0.5-0.1-1.1,0.2-1.2,0.8c-0.1,0.6-0.2,1.1-0.1,1.8c0,0.5,0.1,1,0.3,1.5c-0.1,0-0.2,0-0.3,0c-1.2,0-3.3,0.5-3.9,4
		c-0.1,0.4,0.1,0.8,0.5,1.1c0.9,0.5,1.7,0.7,2.5,0.7c0.6,0,1.1-0.1,1.5-0.3c0.1,1.5,0.7,2.6,1.2,3.6c0.4,0.8,0.8,1.5,0.9,2.4
		c-0.2,0.2-0.4,0.5-0.5,0.8C6,116.5,6,116.8,6,117v2.5c0,0.7,0.3,1.3,0.8,1.8c0.4,0.3,0.8,0.6,1.4,0.7c0.1,0.3,0.3,0.6,0.6,0.9
		c1.1,1.1,2.9,1.1,3.3,1.1c0,0,0,0,0,0c0.4,0,2.2-0.1,3.3-1.1c0.3-0.3,0.5-0.6,0.6-0.9c1.2-0.2,2.1-1.2,2.1-2.4V117
		c0-0.3,0-0.5-0.1-0.8c-0.1-0.3-0.3-0.5-0.5-0.8c0.1-0.9,0.5-1.6,0.9-2.4c0.5-1,1.1-2,1.2-3.6c0.4,0.2,0.9,0.3,1.5,0.3
		c0.8,0,1.6-0.2,2.5-0.7C23.9,108.8,24.1,108.4,24,108z M3,107.8c-0.3,0-0.5-0.1-0.8-0.2C2.7,106,3.6,106,4,106
		c0.3,0,0.6,0.1,0.8,0.1C4.5,106.8,4,107.8,3,107.8z M15.7,116.6l0.1,0.1c0,0,0.1,0.1,0.1,0.2c0,0.1,0,0.1,0,0.1v2.5
		c0,0.2-0.3,0.5-0.5,0.5l-0.2,0c-0.1,0-0.1,0-0.2,0c-0.9-0.1-2.5-0.4-2.7-0.4c-0.1,0-0.2,0-0.4-0.1c-0.2,0-0.3,0-0.4,0
		c-0.4,0.1-2.2,0.5-3,0.5c-0.2,0-0.4-0.1-0.5-0.2c-0.1-0.1-0.2-0.2-0.2-0.3V117c0,0,0,0,0-0.1c0-0.1,0.1-0.1,0.1-0.2l0.2-0.2
		c0.7-0.7,2.2-1.1,3.7-1.1C13.5,115.5,15,115.9,15.7,116.6z M12,122C12,122,12,122,12,122C12,122,12,122,12,122L12,122
		c-0.3,0-0.9-0.1-1.3-0.2c0.5-0.1,1-0.2,1.3-0.3c0.2,0.1,0.7,0.2,1.3,0.3C12.9,121.9,12.3,122,12,122C12,122,12,122,12,122z
		 M16.5,112c-0.3,0.6-0.7,1.3-1,2.2c-1-0.4-2.3-0.7-3.6-0.7c-1.3,0-2.6,0.2-3.6,0.7c-0.2-0.8-0.6-1.5-1-2.2c-0.5-1-1-1.8-1-3
		c0-3.1,0.9-5,5.5-5s5.5,1.9,5.5,5C17.5,110.2,17.1,111.1,16.5,112z M21,107.8c-1,0-1.5-0.9-1.8-1.6c0.2-0.1,0.5-0.1,0.8-0.1
		c0.4,0,1.3,0,1.8,1.6C21.5,107.7,21.2,107.8,21,107.8z"/>
	<path fill="#3D3D3C" d="M10,107c-0.6,0-1,0.4-1,1c0,0.6,0.4,1,1,1c0.6,0,1-0.4,1-1C11,107.4,10.6,107,10,107z"/>
	<path fill="#3D3D3C" d="M14,107c-0.6,0-1,0.4-1,1c0,0.6,0.4,1,1,1c0.6,0,1-0.4,1-1C15,107.4,14.6,107,14,107z"/>
</g>
<g>
	<path fill="#3D3D3C" d="M24,125.9c0-0.1,0-0.2-0.1-0.2c0,0,0-0.1,0-0.1c0,0,0,0,0,0c0-0.1-0.1-0.1-0.1-0.2c0,0,0,0-0.1-0.1
		c-0.1-0.1-0.2-0.2-0.3-0.2c0,0,0,0-0.1,0c-0.1,0-0.2-0.1-0.3-0.1c0,0,0,0,0,0c0,0-0.1,0-0.1,0c0,0-0.1,0-0.1,0l-22,5
		c0,0-0.1,0-0.1,0c-0.1,0-0.1,0-0.2,0.1c-0.1,0-0.1,0.1-0.2,0.1c0,0-0.1,0.1-0.1,0.1c0,0.1-0.1,0.1-0.1,0.2c0,0.1,0,0.1-0.1,0.2
		c0,0.1,0,0.1,0,0.2c0,0,0,0.1,0,0.1v11c0,0.1,0,0.1,0,0.2c0,0.3,1.3,6.8,12,6.8c0.1,0,0.3,0,0.4-0.1c0.1-0.1,0.2-0.1,0.3-0.2l11-11
		c0.2-0.2,0.3-0.4,0.3-0.7L24,125.9C24,126,24,126,24,125.9z M11,147c-7.6-0.3-8.9-4.5-9-5.1v-7.7c1.5,1.3,4.3,2.6,9,2.8L11,147
		L11,147z M11.6,135c-6.1-0.1-8.4-2.1-9.2-3.3l17.1-3.9L11.6,135z M22,136.6l-3.8,3.8c-0.3-1.2-1-2-1.8-2c-1.1,0-1.9,1.3-1.9,3
		c0,0.8,0.2,1.6,0.6,2.1l-2.1,2.1v-9.1l1.6-1.4c0.2,0.9,0.8,1.5,1.5,1.5c0.9,0,1.6-0.9,1.6-2c0-0.7-0.3-1.3-0.7-1.6l5.1-4.6
		L22,136.6L22,136.6z"/>
	<path fill="#3D3D3C" d="M19.7,136.5c0.7,0,1.2-0.7,1.2-1.5c0-0.8-0.5-1.5-1.2-1.5c-0.7,0-1.2,0.7-1.2,1.5
		C18.5,135.8,19,136.5,19.7,136.5z"/>
</g>
<g id="_x36_8-food_-_egg" enable-background="new    ">
	<path fill="#3D3D3C" d="M10.9,150c-5,0-9,6.9-9,13.5c0,6.6,4,10.5,9,10.5s9-3.9,9-10.5C19.9,156.9,15.8,150,10.9,150z M10.9,172.5
		c-4.1,0-7.5-3.2-7.5-9c0-5.8,3.4-12,7.5-12c4.1,0,7.5,6.2,7.5,12C18.4,169.3,15,172.5,10.9,172.5z"/>
</g>
<g id="Layer_1_1_">
</g>
<g>
	<path fill="#3D3D3C" d="M8,185.8c0.4,0.2,0.8,0.5,1.2,0.7c0.4,0.3,0.8,0.6,1.2,0.9c0.8,0.7,1.6,1.4,2.3,2.1
		c0.2,0.2,0.4,0.2,0.6,0.1c0.2-0.2,0.3-0.5,0.2-0.7c-0.6-0.9-1.2-1.8-1.9-2.7c-0.4-0.4-0.7-0.9-1.1-1.3c-0.4-0.4-0.8-0.8-1.3-1.2
		l0,0c-0.1-0.1-0.1-0.1-0.2-0.1c-0.6-0.3-1.3,0-1.5,0.6C7.2,184.9,7.5,185.6,8,185.8z"/>
	<path fill="#3D3D3C" d="M24,192c0-0.3-0.3-0.5-0.6-0.4l-4.8,0.9c-0.1-0.9-0.5-2.5-1.3-4.4c0,0,0-0.1,0-0.1c0-0.3,0.8-0.5,1.5-0.5
		c0.1,0,0.2,0,0.2,0c0.2,0,0.4-0.1,0.5-0.4c0.1-0.2,0-0.5-0.2-0.6c-1.5-0.8-2.6-0.9-3.2-0.9c-0.1-0.2-0.2-0.3-0.3-0.5
		c-0.1-0.3-0.2-0.5-0.2-0.8c-0.1-0.5-0.1-1.1-0.1-1.6c0-1.1,0.1-2.2,0.3-3.3c0-0.2-0.1-0.4-0.3-0.4l0,0c-0.9-0.4-1.9-0.5-2.9-0.5
		c-0.7,0-1.4,0-2.1,0.1c-1.8-1.7-4.5-3.6-8-3.6c-0.6,0-1.1,0.1-1.7,0.2c-0.2,0-0.3,0.2-0.4,0.3c-0.1,0.2-1.8,5.7,3,10.5
		c0.2,0.2,0.3,0.3,0.5,0.5c0,0,0,0,0,0l-1,1.7c0,0.1-0.1,0.2-0.1,0.3c0,0.3,0.3,1.1,1.2,1.3c0.2,0,0.3,0.1,0.5,0.1
		c0.6,0,0.9-0.3,1-0.3c0.1-0.1,0.1-0.2,0.1-0.3l0-1c1.6,1.4,3.2,2.4,4.6,3.2c0,0.6,0.1,1.6,0.9,3.1c0.1,0.2,0.3,0.3,0.4,0.3
		c0,0,0.1,0,0.1,0c0.2-0.1,0.4-0.3,0.3-0.5c0-0.4,0-1.6,0.5-1.6c0,0,0.1,0,0.1,0c2.1,0.9,3.7,1.2,4.6,1.3l-0.9,4.6
		c-0.1,0.3,0.1,0.5,0.4,0.6c0,0,0.1,0,0.1,0c0.2,0,0.4-0.2,0.5-0.4c0.2-0.8,0.8-3.3,1.8-4.2c1.2-1.2,4.3-1.8,4.3-1.8
		C23.9,192.5,24,192.3,24,192z M14.7,182c-0.4-0.1-0.8-0.1-1.2-0.1c-0.2-0.3-0.4-0.5-0.6-0.8c0.6,0,1.2,0,1.9,0
		C14.7,181.5,14.7,181.7,14.7,182z M14.1,182.7c0.2,0,0.4,0,0.6,0c0,0,0,0,0,0.1c0,0.3,0,0.6,0.1,0.9
		C14.6,183.4,14.4,183,14.1,182.7z M12.5,179.3c0.8,0,1.6,0.1,2.3,0.3c0,0.3-0.1,0.6-0.1,1c-0.9-0.2-1.8-0.3-2.7-0.3
		c-0.3-0.3-0.5-0.6-0.8-0.9C11.7,179.4,12.1,179.3,12.5,179.3z M1.2,176.1c0.1,0,0.1,0,0.2,0c0.2,0.1,0.5,0.4,0.7,0.7
		c0.1,0.3,0.1,0.5-0.1,0.8c-0.1,0.3,0,0.6,0.3,0.7c0.1,0,0.1,0,0.2,0c0.2,0,0.4-0.1,0.5-0.3c0.2-0.6,0.3-1.1,0.1-1.6
		c0-0.1-0.1-0.2-0.1-0.2c0.5,0.4,1,0.9,1.5,1.3c0,0,0,0,0,0c0.4-0.4,1-0.4,1.4,0c0.4,0.4,0.4,1,0,1.4c0.6,0.6,1.1,1.1,1.7,1.6
		c-1.6,2.1-2.9,2.6-3.7,2.6c-1.4,0-2.2-1.6-2.2-1.6l0,0C0.7,179,1,176.9,1.2,176.1z M2.9,184c0.2,0.1,0.5,0.1,0.8,0.1
		c0,0,0.1,0,0.1,0c1.4,0,2.9-1,4.4-2.9c5.6,5.6,8.4,9.9,9.4,11.5c0,0,0,0,0,0.1c-1.8-0.2-7.4-1.3-13.5-7.5
		C3.7,184.9,3.3,184.4,2.9,184z"/>
	<path fill="#3D3D3C" d="M5.5,178.6c0.2-0.2,0.2-0.5,0-0.7c-0.2-0.2-0.5-0.2-0.7,0c-0.2,0.2-0.2,0.5,0,0.7
		C5,178.7,5.3,178.7,5.5,178.6z"/>
</g>
<g id="garlic">
	<path fill="#3D3D3C" d="M11.6,219.6c0.3,0,0.6,0,0.9-0.1c0.5,0.3,1.1,0.5,2,0.5c0.8,0,1.5-0.2,2-0.5c0.3,0,0.6,0.1,0.9,0.1
		c0.9,0,1.6-0.2,2.2-0.6c1.6,0,2.8-0.5,3.6-1.3c1.1-1.2,0.9-2.9,0.8-3.6c-0.5-3.4-5.8-7.2-6.8-7.8c-0.3-0.4-0.6-1.3,0.3-3.9
		c0.1-0.4,0-0.8-0.2-1c-0.1-0.1-1.3-1.3-2.7-1.3c-1.4,0-2.6,1.2-2.7,1.3c-0.3,0.3-0.4,0.7-0.2,1c0.9,2.6,0.6,3.6,0.3,3.9
		c-1,0.7-6.3,4.4-6.8,7.8c-0.1,0.7-0.3,2.4,0.8,3.6c0.8,0.9,2,1.3,3.6,1.3C10,219.4,10.7,219.6,11.6,219.6z M17.1,210
		c1.3,1.5,2.4,3.1,2.4,4.2c0,0.9,0,2.4-0.7,3c-0.2,0.2-0.5,0.3-0.9,0.4C18.5,215.5,17.9,212.5,17.1,210z M11.9,210
		c-0.8,2.5-1.4,5.5-0.8,7.5c-0.4-0.1-0.7-0.2-0.9-0.4c-0.7-0.6-0.7-2-0.7-2.9C9.5,213.1,10.6,211.5,11.9,210z M7.8,212.6
		c-0.2,0.5-0.3,1.1-0.3,1.6c0,0.7,0,1.6,0.2,2.5c-0.2-0.1-0.3-0.2-0.4-0.3c-0.5-0.6-0.4-1.5-0.3-2C7.1,213.8,7.4,213.2,7.8,212.6z
		 M21.6,216.4c-0.1,0.1-0.3,0.2-0.4,0.3c0.2-0.9,0.2-1.8,0.2-2.5c0-0.5-0.1-1.1-0.3-1.6c0.4,0.6,0.8,1.2,0.8,1.8
		C22,214.9,22.1,215.8,21.6,216.4z M14.5,218c-0.8,0-1.1-0.3-1.3-0.6c-1-1.5,0.1-5.6,1.3-8.8c1.2,3.2,2.3,7.3,1.3,8.8
		C15.6,217.7,15.3,218,14.5,218z"/>
	<path fill="#3D3D3C" d="M2,222.8c1,0.8,2,1.2,3.1,1.2l0,0c2.3,0,3.9-1.9,3.9-2c0.2-0.3,0.3-0.6,0.2-1c-0.1-0.3-0.4-0.6-0.7-0.6
		c-1.3-0.3-4.6-3.3-6.5-5.3c-0.3-0.3-0.6-0.4-1-0.3c-0.4,0.1-0.6,0.4-0.7,0.8C0.2,215.8-0.8,220.6,2,222.8z M2,218
		c1.2,1.2,2.9,2.7,4.3,3.6C6,221.8,5.5,222,5.1,222c-0.6,0-1.2-0.3-1.9-0.8C2.3,220.5,2,219.2,2,218z"/>
</g>
<path fill="#3D3D3C" d="M24,240.6c-0.2-4.3-3.4-5-3.6-5c-0.1,0-0.1,0-0.2,0c-0.8-3-3.2-3.5-3.3-3.5c-0.1,0-0.1,0-0.2,0
	c-0.8-3-3.2-3.5-3.3-3.5c-0.4-0.1-0.9,0.1-1.1,0.5l-3.9-3.9c-0.2-0.2-0.5-0.2-0.7,0c-0.2,0.2-0.2,0.5,0,0.7l4.2,4.2c0,0,0,0,0,0
	c-0.1,0.5-0.3,1.1-0.5,1.7c-0.2-0.4-0.5-0.7-0.8-1c-1.8-1.8-4-2.1-5.1-2.1c-0.6,0-1,0.1-1,0.1c0,0-0.1,0-0.1,0l-3.6-3.7
	c-0.2-0.2-0.5-0.2-0.7,0c-0.2,0.2-0.2,0.5,0,0.7l3.6,3.7c0,0,0,0,0,0c0,0.1-0.7,3.5,2,6.2c0.3,0.3,0.7,0.6,1,0.8
	c-0.6,0.1-1.2,0.3-1.6,0.4c0,0,0-0.1-0.1-0.1l-4.2-4.2c-0.2-0.2-0.5-0.2-0.7,0c-0.2,0.2-0.2,0.5,0,0.7l3.9,4
	c-0.4,0.2-0.7,0.6-0.6,1.1c0,0.1,0.5,2.5,3.5,3.3c0,0.1,0,0.1,0,0.2c0,0.1,0.5,2.5,3.5,3.3c0,0,0,0.1,0,0.1c0,0.1,0.7,3.3,5,3.6
	c0.1,0,0.3,0,0.4,0c0,0,0,0,0,0c2.7,0,5.8-1.2,6-1.2c0.2-0.1,0.3-0.2,0.4-0.3c0.2-0.1,0.3-0.3,0.4-0.5
	C22.8,246.8,24.1,243.4,24,240.6z M22,240.7c0.1,1.4-0.3,3.1-0.7,4.2c-0.1-0.1-0.1-0.1-0.2-0.2c-0.5-0.6-0.9-1.3-1.1-2.3
	c-0.1-0.9,0.3-2.9,0.8-4.5C21.3,238.4,21.9,239.2,22,240.7z M18.5,237.2c0.1,1.4-0.3,3.1-0.7,4.3c-0.5-0.6-1.1-1.4-1.3-2.5
	c-0.1-0.9,0.3-2.9,0.8-4.5C17.8,234.8,18.4,235.6,18.5,237.2z M13.8,230.9c0.5,0.4,1.1,1.2,1.1,2.7c0.1,1.4-0.3,3.1-0.7,4.3
	c0,0,0,0,0,0c-0.5-0.6-1.1-1.4-1.2-2.5C12.9,234.5,13.4,232.5,13.8,230.9z M5.7,230.7c1,0,2.4,0.3,3.6,1.5c1,1,1.3,2.5,1.4,3.5
	c-1-0.1-2.5-0.5-3.5-1.4C5.9,233,5.7,231.6,5.7,230.7z M5.9,238.9c1.4-0.4,3.5-0.9,4.5-0.8c1.1,0.1,2,0.7,2.5,1.3
	c-1.1,0.3-2.8,0.7-4.3,0.7C7.1,239.9,6.3,239.4,5.9,238.9z M9.4,242.4c1.4-0.4,3.5-0.9,4.5-0.8c1.1,0.1,2,0.7,2.5,1.3
	c-1.1,0.3-2.9,0.7-4.3,0.7C10.6,243.4,9.8,242.9,9.4,242.4z M15.6,247c-1.5-0.1-2.3-0.6-2.7-1.2c1.4-0.4,3.5-0.9,4.5-0.8
	c1,0.1,1.8,0.6,2.4,1.1c0,0.1,0.1,0.1,0.1,0.1C18.7,246.7,17,247.1,15.6,247z"/>
<g>
	<path fill="#3D3D3C" d="M10,264c0-0.6-0.4-1-1-1c-0.6,0-1,0.4-1,1c0,0.6,0.4,1,1,1C9.6,265,10,264.6,10,264z"/>
	<path fill="#3D3D3C" d="M15,263c-0.6,0-1,0.4-1,1c0,0.6,0.4,1,1,1c0.6,0,1-0.4,1-1C16,263.4,15.6,263,15,263z"/>
	<path fill="#3D3D3C" d="M14,267.5h-4c-0.3,0-0.5,0.2-0.5,0.5c0,0.8,0.6,1.5,1.5,1.8v0.2c0,0.6,0.4,1,1,1c0.6,0,1-0.4,1-1v-0.2
		c0.9-0.3,1.5-1,1.5-1.8C14.5,267.7,14.3,267.5,14,267.5z"/>
	<path fill="#3D3D3C" d="M24,260.5c-0.6-2.1-1.8-3-2.8-3.3c0.2-0.5,0.3-1,0.3-1.5c0-2-1.6-3.7-3.7-3.7c-0.6,0-1.1,0.1-1.6,0.4
		c-1-1.5-2.5-2.4-4.2-2.4c-1.7,0-3.2,1-4.2,2.5c-0.5-0.3-1.1-0.4-1.7-0.4c-2,0-3.7,1.6-3.7,3.7c0,0.5,0.1,1,0.3,1.4
		c-1,0.4-2.1,1.2-2.8,3.3c-0.1,0.4,0,0.9,0.4,1.1c1,0.7,2,1,3,1c0.2,0,0.4,0,0.6,0v0.4c0,6.1,3.6,11,8,11c4.4,0,8-4.9,8-11v-0.4
		c0.2,0,0.4,0,0.6,0c0.9,0,1.9-0.3,3-1C23.9,261.4,24.1,260.9,24,260.5z M6.2,254.1c0.5,0,0.9,0.2,1.2,0.6c0.2,0.3,0.6,0.4,0.9,0.3
		c0.3-0.1,0.6-0.3,0.8-0.6c0.6-1.5,1.7-2.4,2.9-2.4c1.2,0,2.3,0.9,2.9,2.3c0.1,0.3,0.4,0.6,0.8,0.6c0.3,0.1,0.7-0.1,0.9-0.3
		c0.3-0.4,0.8-0.6,1.2-0.6c0.9,0,1.7,0.7,1.7,1.7c0,0.7-0.4,1.3-1.1,1.6c-0.4,0.2-0.7,0.6-0.7,1.1c0,0,0,0.1,0,0.1
		c0,0.6-0.5,1.1-1.1,1.1c-0.3,0-0.6-0.1-0.8-0.3c-0.2-0.2-0.5-0.3-0.8-0.3c-0.3,0-0.5,0.2-0.7,0.4c-1.3,1.6-3.4,1.6-4.7,0
		c-0.2-0.2-0.4-0.4-0.7-0.4c0,0,0,0-0.1,0c-0.3,0-0.5,0.1-0.7,0.3c-0.2,0.2-0.5,0.3-0.8,0.3c-0.6,0-1.1-0.5-1.1-1.1c0,0,0-0.1,0-0.1
		c0-0.4-0.2-0.9-0.7-1c-0.7-0.2-1.1-0.9-1.1-1.5C4.5,254.9,5.2,254.1,6.2,254.1z M2.2,260.4c0.6-1.2,1.3-1.4,1.9-1.4
		c0.1,0,0.1,0,0.2,0c0.1,0.4,0.2,0.8,0.4,1.1c-0.3,0.3-0.8,0.6-1.3,0.6C3.1,260.7,2.7,260.6,2.2,260.4z M18,263c0,5-2.7,9-6,9
		c-3.3,0-6-4-6-9v-1.4c0.1-0.1,0.2-0.2,0.3-0.3c0.3,0.1,0.7,0.2,1.1,0.2c0.5,0,1-0.1,1.4-0.3c0.9,0.9,2.1,1.4,3.3,1.4
		c1.2,0,2.3-0.5,3.3-1.4c0.4,0.2,0.9,0.3,1.3,0.3c0.4,0,0.8-0.1,1.1-0.2c0.1,0.1,0.2,0.2,0.3,0.3L18,263L18,263z M20.6,260.7
		c-0.5,0-1-0.3-1.3-0.6c0.2-0.3,0.3-0.7,0.4-1.1c0.1,0,0.1,0,0.2,0c0.5,0,1.3,0.2,1.9,1.4C21.3,260.6,20.9,260.7,20.6,260.7z"/>
</g>
<g>
	<path fill="#3D3D3C" d="M10.8,13.9c0.6,0,1.2,0,1.8-0.1c4.4-0.5,7.5-2.8,7.9-4.8c-0.3-0.1-0.8-0.1-1.1-0.2c-1-0.1-2.2-0.3-3.4-0.7
		c-1.1-0.3-2.1-0.9-3.1-1.4C11.3,6,9.9,5.3,8.2,5.3c-0.2,0-0.5,0-0.7,0C5.6,5.5,4.4,6,3.9,6.8c-0.4,0.7-0.5,1.8-0.3,3.5
		C3.8,12,6.6,13.9,10.8,13.9z M13.9,9.4c1.1,0,2.1,0.6,2.1,1.2c0,0.7-0.9,1.2-2.1,1.2c-1.1,0-2.1-0.6-2.1-1.2
		C11.8,9.9,12.8,9.4,13.9,9.4z"/>
	<path fill="#3D3D3C" d="M24,12.9c0-0.5,0-3.6,0-4.6h0c0-0.2,0-0.3,0-0.5c-0.3-2.1-2.3-2.3-4.2-2.6c-0.9-0.1-1.9-0.2-2.9-0.5
		c-0.8-0.3-1.7-0.7-2.6-1.1c-2-1-4.3-2.2-7.3-1.8C4,2.2,2,3.2,0.9,5C0.1,6.3-0.1,7.9,0,9.4h0v6.2l0,0.1c0.5,3.9,5.1,6.6,10.8,6.6
		c0.7,0,1.4,0,2.2-0.1C19.6,21.4,24.4,17.3,24,12.9z M2.6,6.1c0.7-1.2,2.3-2,4.8-2.3c0.3,0,0.6-0.1,0.9-0.1c2,0,3.6,0.8,5.2,1.7
		c0.9,0.5,1.9,1,2.9,1.3c1.1,0.3,2.2,0.5,3.2,0.6c1.8,0.2,2.4,0.4,2.4,0.8c0.4,3.2-3.8,6.5-9.2,7.2c-0.6,0.1-1.3,0.1-1.9,0.1
		c-4.6,0-8.4-2.1-8.7-4.9C1.9,8.4,2,7,2.6,6.1z M12.8,20.2C7.3,20.9,2.4,18.7,2,15.5v-1.2c1.9,1.9,5.1,3,8.8,3c0.7,0,1.4,0,2.2-0.1
		c3.8-0.5,7-2,9-4.1C22.3,16.4,18.1,19.6,12.8,20.2z"/>
</g>
<g>
	<g>
		<path fill="#3D3D3C" d="M22.7,276.4c-0.8-0.8-2.9-1.4-4.9-1.4c-2.4,0-4.4,0.7-5.7,2c-1.3,1.3-1.6,2.6-2,3.8
			c-0.3,1.1-0.5,2-1.4,2.8s-1.7,1.1-2.8,1.4c-1.2,0.3-2.5,0.7-3.8,2c-3.2,3.2-2.1,9.2-0.7,10.6c0.8,0.8,2.9,1.4,4.9,1.4
			c2.4,0,4.4-0.7,5.7-2c1.3-1.3,1.6-2.6,2-3.8c0.3-1.1,0.5-2,1.4-2.8c0.8-0.8,1.7-1.1,2.8-1.4c1.2-0.3,2.5-0.7,3.8-2
			C25.1,283.8,24,277.8,22.7,276.4z M21.3,286.3c-1.1,1.1-2.2,1.4-3.4,1.7c-1.1,0.3-2.2,0.6-3.3,1.6s-1.3,2.1-1.6,3.3
			c-0.3,1.2-0.6,2.3-1.7,3.4c-1.5,1.5-3.8,1.7-5,1.7c-1.9,0-3.7-0.5-4.2-1.1c-1-1.1-2-6.5,0.7-9.3c1.1-1.1,2.2-1.4,3.4-1.7
			c1.1-0.3,2.2-0.6,3.3-1.6c1-1,1.3-2.1,1.6-3.3c0.3-1.2,0.6-2.3,1.7-3.4c1.5-1.5,3.8-1.7,5-1.7c1.9,0,3.7,0.5,4.2,1.1
			C23,278.1,24,283.6,21.3,286.3z M18.5,278.1v-1c-0.5,0-2.3,0-3.2,0.8l0.6,0.7C16.4,278.2,17.6,278.1,18.5,278.1z M13.2,282.7
			C13.3,282.8,13.3,282.8,13.2,282.7c0-0.2,0-1.3,0.1-2.3l-1-0.1c-0.4,2.6,0,3,0.1,3.2L13.2,282.7z M17.8,280.1l-0.2-1
			c-0.2,0-2,0.4-2.4,1.7l0.9,0.3C16.3,280.5,17.4,280.1,17.8,280.1z M10.3,284.8c-0.4,0.7-0.9,1.5-1.4,1.5v1c1,0,1.8-1.4,2.2-1.9
			L10.3,284.8z M5.7,288.2l0.7-0.7c-0.3-0.3-1.3-0.7-2.4,0.3l0.7,0.7C5.3,287.9,5.6,288.1,5.7,288.2z M2.1,289.9c0,0,0,2.1,0.4,3.3
			l0.9-0.3c-0.3-0.9-0.3-3-0.3-3H2.1z M7.6,289.7l-0.4-0.9c0,0-1.6,0.8-1.9,2l0.9,0.3C6.4,290.4,7.3,289.8,7.6,289.7z M5.4,294.9v1
			c0,0,2.2,0,3.1-0.8l-0.7-0.7C7.4,294.7,5.9,294.9,5.4,294.9z M10.5,290.2C10.4,290.2,10.4,290.2,10.5,290.2c0,0.2,0,1.3-0.1,2.3
			l1,0.1c0.4-2.6,0-3-0.1-3.2L10.5,290.2z M5.9,292.9l0.2,1c0.2,0,2-0.4,2.4-1.7l-0.9-0.3C7.4,292.4,6.3,292.8,5.9,292.9z
			 M12.5,287.6l0.8,0.5c0.4-0.7,0.9-1.5,1.4-1.5v-1C13.7,285.6,12.9,287,12.5,287.6z M18,284.8l-0.3,0.3l-0.3,0.3
			c0.2,0.2,0.5,0.4,1,0.4s0.9-0.2,1.5-0.7l-0.7-0.7C18.4,285,18.1,284.8,18,284.8z M20.3,280.1c0.3,0.9,0.3,3,0.3,3h1
			c0,0,0-2.2-0.4-3.3L20.3,280.1z M18.5,282.2l-0.9-0.3c-0.2,0.7-1.1,1.3-1.5,1.5l0.4,0.9C16.6,284.1,18.1,283.4,18.5,282.2z"/>
	</g>
</g>
<g>
	<path fill="#3D3D3C" d="M23.9,302.7c0.3-0.5,0.1-1.1-0.4-1.3c-0.1-0.1-2.6-1.3-4.8-1.3c-1.2,0-2.1,0.3-2.8,1
		c-0.2,0.2-0.4,0.4-0.5,0.5c-1.1-0.3-2.2-0.5-3.4-0.5c-1.2,0-2.3,0.2-3.4,0.5c-0.2-0.2-0.3-0.3-0.5-0.5c-0.7-0.7-1.6-1-2.8-1
		c-2.2,0-4.7,1.3-4.8,1.3c-0.5,0.3-0.7,0.9-0.4,1.3c0.2,0.3,1.1,2,2.5,3.2c-1.3,1.9-2.1,4.1-2.1,6.6c0,6.4,5.1,11.5,11.5,11.5
		c6.3,0,11.5-5.1,11.5-11.5c0-2.5-0.8-4.7-2.1-6.6C22.8,304.7,23.7,303,23.9,302.7z M15,308c0.8,0,1.5,0.7,1.5,1.5
		c0,0.8-0.7,1.5-1.5,1.5c-0.8,0-1.5-0.7-1.5-1.5C13.5,308.7,14.2,308,15,308z M10.5,309.5c0,0.8-0.7,1.5-1.5,1.5
		c-0.8,0-1.5-0.7-1.5-1.5c0-0.8,0.7-1.5,1.5-1.5C9.8,308,10.5,308.7,10.5,309.5z M5.3,302c0.6,0,1.1,0.1,1.4,0.4
		c1.1,1,1.3,1.7,1.3,2c-0.2,0.2-0.7,0.6-2.2,0.9c-1.2,0.2-2.6-1.4-3.4-2.6C3.3,302.3,4.4,302,5.3,302z M12,321c-3,0-5.5-1.6-5.5-3.7
		c0-2,3.7-4.6,5.5-4.6c1.8,0,5.5,2.6,5.5,4.6S15,321,12,321z M18.2,305.3c-1.5-0.2-2-0.7-2.2-0.9c0-0.2,0.2-0.9,1.3-2
		c0.3-0.3,0.8-0.4,1.4-0.4c1,0,2.1,0.4,2.9,0.7C20.8,303.9,19.4,305.5,18.2,305.3z"/>
	<path fill="#3D3D3C" d="M10.5,316.5c-0.6,0-1,0.4-1,1c0,0.6,0.4,1,1,1c0.6,0,1-0.4,1-1C11.5,316.9,11.1,316.5,10.5,316.5z"/>
	<path fill="#3D3D3C" d="M13.5,316.5c-0.6,0-1,0.4-1,1c0,0.6,0.4,1,1,1c0.6,0,1-0.4,1-1C14.5,316.9,14.1,316.5,13.5,316.5z"/>
</g>
<g id="chicken_1_">
	<path fill="#3D3D3C" d="M14.4,344.6c0.5,0.2,1,0.3,1.6,0.3c2.2,0,4-1.8,4-4c0-0.8-0.2-1.5-0.6-2.1
		C17.5,339.9,15.6,341.6,14.4,344.6z"/>
	<path fill="#3D3D3C" d="M23.7,335.5l-3.4-1.9c-1.2-2.9-3.6-4.6-6.3-4.6c-2.9,0-7.7,2-14,11.4c-0.2,0.2-0.1,0.5,0.1,0.7l11.5,7.7
		c0.1,0.1,0.2,0.1,0.3,0.1c0.1,0,0.1,0,0.2-0.1c0.2-0.1,0.3-0.2,0.3-0.4c0.9-10.9,10.6-12,11-12c0.2,0,0.4-0.2,0.4-0.4
		C24,335.8,23.9,335.6,23.7,335.5z M15,334c-0.6,0-1-0.4-1-1c0-0.5,0.4-1,1-1c0.6,0,1,0.4,1,1C16,333.5,15.6,334,15,334z"/>
	<path fill="#3D3D3C" d="M14.1,328c1.4,0,2.7,0.4,3.9,1.1c0-0.1,0-0.1,0-0.2c0-1.7-1.3-3-3-3c-0.2,0-0.5,0-0.7,0.1
		c-0.6-0.7-1.4-1.1-2.3-1.1c-1.3,0-2.4,0.9-2.8,2C8,327.2,7,328.2,7,329.5c0,0.5,0.1,0.9,0.3,1.2C10.1,328.6,12.4,328,14.1,328z"/>
</g>
<path fill="#3D3D3C" d="M22.7,368.6c-0.5-0.2-1.3-0.1-1.9,0.1c-0.2-0.5-0.5-1-0.8-1.6l1.6-0.8c0.4-0.2,0.5-0.7,0.4-1.1
	c-0.2-0.4-0.7-0.5-1.1-0.3l-1.7,0.9c-0.1-0.2-0.3-0.4-0.4-0.7l1.5-0.7c0.4-0.2,0.5-0.7,0.4-1.1c-0.2-0.4-0.7-0.5-1.1-0.4l-1.7,0.9
	c-0.2-0.2-0.3-0.4-0.5-0.6l1.5-0.8c0.4-0.2,0.5-0.7,0.4-1.1c-0.2-0.4-0.7-0.5-1.1-0.4l-1.8,0.9c-0.4-0.4-0.7-0.9-1.1-1.2
	c0-0.9,0-1.7-0.1-2.6c-0.1-0.8-0.3-1.6-0.5-2.4c-0.2-0.6-0.4-1.2-0.7-1.8c-0.2-0.6-0.6-1.2-1.1-1.7c-1.4-1.4-3.3-1.7-4.2-0.8
	c-0.1,0.1-0.1,0.4,0,0.5l2.2,2.2c-0.7,0.2-1.7-0.7-1.7-0.7c-0.1-0.1-0.2-0.1-0.3-0.1c-0.1,0-0.2,0.1-0.2,0.3
	c-0.2,0.9,0.3,1.6,0.8,2.1c1.2,1.2,2.7,1.6,3.7,1.1c0.3,0.6,0.5,1.1,0.7,1.7c0.1,0.3,0.2,0.7,0.3,1c-1.8-1.7-3.2-2.1-4.2-1.9
	c0-0.1-0.1-0.2-0.2-0.3c-0.2-0.2-0.5-0.3-0.7-0.2c-0.3-0.3-0.6-0.7-0.9-1.1c-0.4-0.6-0.8-1.2-1.1-1.8c-0.6-1.3-1-2.7-1.1-4.1
	c0,0,0-0.1-0.1-0.1c0,0-0.1,0-0.1,0.1c-0.1,1.5,0.2,2.9,0.8,4.3c0.3,0.7,0.6,1.3,1,2c0.3,0.4,0.6,0.8,0.9,1.2
	c-0.1,0.3,0,0.6,0.2,0.8c-0.2-0.2-0.5-0.3-0.8-0.2c-0.4-0.3-0.8-0.6-1.3-0.9c-0.6-0.4-1.3-0.7-2-1c-1.4-0.6-2.8-0.9-4.3-0.8
	c0,0-0.1,0-0.1,0.1c0,0,0,0.1,0.1,0.1c1.4,0.1,2.8,0.4,4.1,1.1c0.6,0.3,1.2,0.7,1.8,1.1c0.4,0.3,0.8,0.6,1.1,0.9
	c-0.1,0.3,0,0.5,0.2,0.7c0.1,0.1,0.2,0.2,0.3,0.2c-0.2,1,0.2,2.4,1.9,4.2c-0.3-0.1-0.7-0.2-1-0.3c-0.6-0.2-1.2-0.5-1.7-0.7
	c0.5-1,0.1-2.5-1.1-3.7c-0.5-0.5-1.2-1.1-2.1-0.8c-0.1,0-0.2,0.1-0.3,0.2c0,0.1,0,0.3,0.1,0.3c0,0,0.9,1,0.7,1.7l-2.2-2.2
	c-0.1-0.1-0.4-0.1-0.5,0c-1,1-0.7,2.8,0.8,4.2c0.5,0.5,1.1,0.9,1.7,1.1c0.6,0.3,1.2,0.5,1.8,0.7c0.8,0.2,1.6,0.4,2.4,0.5
	c0.9,0.1,1.7,0.2,2.6,0.1c0.4,0.4,0.8,0.7,1.2,1.1l-0.9,1.8c-0.2,0.4,0,0.9,0.4,1.1c0.1,0.1,0.2,0.1,0.4,0.1c0.3,0,0.6-0.2,0.7-0.4
	l0.8-1.5c0.2,0.2,0.4,0.3,0.6,0.5l-0.9,1.7c-0.2,0.4,0,0.9,0.4,1.1c0.1,0.1,0.2,0.1,0.4,0.1c0.3,0,0.6-0.2,0.7-0.4l0.7-1.5
	c0.2,0.2,0.4,0.3,0.7,0.4l-0.9,1.7c-0.2,0.4,0,0.9,0.4,1.1c0.1,0.1,0.2,0.1,0.4,0.1c0.3,0,0.6-0.2,0.7-0.4l0.8-1.6
	c0.5,0.3,1.1,0.6,1.6,0.8c-0.2,0.6-0.3,1.4-0.1,1.9c0.3,1,1.3,1.5,2.1,1.2c0.3-0.1,0.6-0.4,0.8-0.7c0.5,0.1,1.1,0,1.4-0.3
	c0.4-0.4,0.5-0.9,0.3-1.5c0.4-0.2,0.6-0.4,0.8-0.8C24.2,369.8,23.7,368.9,22.7,368.6z"/>
<g>
	<path fill="#3D3D3C" d="M5.8,387.7c-0.8-0.3-1.6,0-1.9,0.8c-0.3,0.8,0,1.6,0.8,1.9c0.8,0.3,1.6,0,1.9-0.8
		C6.9,388.9,6.6,388,5.8,387.7z"/>
	<path fill="#3D3D3C" d="M7,384.9c-0.6-0.2-1.2,0-1.5,0.6c-0.2,0.6,0,1.2,0.6,1.5c0.6,0.2,1.2,0,1.5-0.6
		C7.8,385.8,7.5,385.2,7,384.9z"/>
	<path fill="#3D3D3C" d="M4.4,391.1c-0.6-0.2-1.2,0-1.5,0.6c-0.2,0.6,0,1.2,0.6,1.5c0.6,0.2,1.2,0,1.5-0.6
		C5.2,392,5,391.4,4.4,391.1z"/>
	<path fill="#3D3D3C" d="M3.3,393.9c-0.4-0.2-0.8,0-1,0.4c-0.2,0.4,0,0.8,0.4,1c0.4,0.2,0.8,0,1-0.4C3.8,394.5,3.6,394,3.3,393.9z"
		/>
	<path fill="#3D3D3C" d="M24,392.4c-0.1-1.1-0.6-5.8-4.4-9.9c-2.4-2.6-6.1-3.3-7.5-3.4c-1.3-2-4.2-3.7-4.6-3.9
		c-0.4-0.2-0.9-0.2-1.2,0.2c-0.3,0.3-0.3,0.7-0.2,1.1c-0.1,0-0.2,0.1-0.2,0.1c-0.3,0.2-0.6,0.4-0.8,0.6c-0.5,0.5-0.9,1.1-1.1,1.8
		c-0.2,0.7-0.2,1-0.4,1.3c-0.2,0.3-0.4,0.5-0.7,0.6c-0.7,0.2-1.5-0.4-1.5-1.1c-0.1-0.8,0.5-1.6,1.4-1.6c0.3,0,0.5-0.2,0.5-0.5
		c0-0.3-0.2-0.5-0.5-0.5l-0.1,0c-0.6,0-1.4,0.2-1.8,0.7c-0.5,0.5-0.8,1.2-0.8,1.9c0,0.7,0.4,1.4,0.9,1.9c0.5,0.5,1.3,0.7,2.1,0.7
		c0.8-0.1,1.5-0.6,1.9-1.2c0.4-0.6,0.6-1.3,0.7-1.7c0.1-0.3,0.4-0.7,0.7-0.9c0.2-0.1,0.3-0.2,0.5-0.3c0.1,0,0.1-0.1,0.2-0.1
		c0.5,1.6,0.2,2.9,0.1,3.3c-1.4,0.7-4.5,2.5-5.8,5.7c-2.4,5.7-0.7,10.8-0.7,11c0.1,0.3,0.3,0.5,0.6,0.6c0.1,0.1,0.3,0.1,0.4,0.1
		c0.2,0,0.3,0,0.5-0.1c0.2-0.1,4.9-2.6,7.3-8.3c1.6-3.8,0-8-0.2-8.7c0.1-0.6,0.3-1.7,0.1-3.2c0.5,0.5,1,1,1.3,1.5
		c0,1.1,0.1,5.3,2.7,8.1c4.1,4.5,9.4,5.3,9.7,5.3c0,0,0.1,0,0.1,0c0,0,0,0,0,0c0.5,0,1-0.4,1-1C24,392.6,24,392.5,24,392.4z
		 M7.5,389.9c-1.4,3.4-3.8,5.5-5.2,6.5c-0.3-1.7-0.5-4.9,0.9-8.3c0.9-2.3,3.1-3.8,4.4-4.5C7.9,385,8.4,387.6,7.5,389.9z M12.4,383.2
		c-0.3-0.4-0.4-0.9-0.3-1.3c0-0.1,0.2-0.2,0.3-0.2c0.1,0,0.2,0.1,0.2,0.2l0,0c0.1,0.6,0.6,1,1.1,1c0.2,0,0.5-0.1,0.7-0.2
		c0.2-0.1,0.4-0.3,0.5-0.7c0.1-0.1,0.2-0.2,0.3-0.1c0.1,0,0.1,0.1,0.2,0.2l0,0c0.1,0.4-0.1,0.9-0.4,1.3c-0.3,0.3-0.8,0.5-1.3,0.5
		C13.2,383.8,12.7,383.6,12.4,383.2z M15.4,387.7c-0.6,0-1.2-0.4-1.6-0.8c-0.4-0.5-0.5-1.1-0.4-1.6c0-0.1,0.2-0.2,0.3-0.2
		c0.1,0,0.2,0.1,0.2,0.2l0,0c0.1,0.4,0.3,0.8,0.6,1c0.3,0.2,0.6,0.4,1,0.4c0.3,0,0.7-0.1,1-0.3c0.3-0.2,0.5-0.5,0.7-0.9
		c0-0.1,0.2-0.2,0.3-0.2c0.1,0,0.2,0.1,0.2,0.2l0,0c0.1,0.5-0.1,1.2-0.5,1.6C16.7,387.5,16.1,387.7,15.4,387.7z M19.6,389.8
		c-0.3,0.3-0.8,0.5-1.3,0.5c-0.4,0-0.9-0.2-1.2-0.6c-0.3-0.3-0.4-0.8-0.3-1.3c0-0.1,0.2-0.2,0.3-0.2c0.1,0,0.2,0.1,0.2,0.2v0
		c0,0.3,0.2,0.6,0.4,0.8c0.2,0.2,0.4,0.3,0.7,0.3c0.2,0,0.5-0.1,0.7-0.2c0.2-0.2,0.4-0.4,0.5-0.7c0-0.1,0.2-0.2,0.3-0.2
		c0.1,0,0.2,0.1,0.2,0.2l0,0C20.1,389,20,389.5,19.6,389.8z M22.6,391.2c-0.1,0.2-0.2,0.3-0.3,0.4c-0.3,0.2-0.5,0.4-1,0.3l-0.2,0
		c-0.1,0-0.2-0.1-0.3-0.1c-0.2-0.1-0.3-0.2-0.4-0.3c-0.2-0.3-0.3-0.6-0.2-0.9c0-0.1,0.2-0.2,0.3-0.2c0.1,0,0.2,0.1,0.2,0.2l0,0
		c0,0.2,0.1,0.3,0.2,0.4c0.1,0.1,0.1,0.1,0.2,0.1c0,0,0,0,0.1,0l0.2,0c0.1,0,0.3,0,0.4-0.1c0.1,0,0.1-0.1,0.2-0.2c0,0,0,0,0.1-0.1
		l0.1-0.2c0-0.1,0.2-0.2,0.3-0.2c0.1,0,0.2,0.1,0.2,0.2l0,0.2C22.6,391,22.6,391.1,22.6,391.2z"/>
</g>
<g id="fishes_2_">
	<path fill="#3D3D3C" d="M22.4,27c0-0.2-0.1-0.3-0.3-0.2l-2.8,2c-0.8-0.6-2.5-1.5-4.1-2l0-1.9l-3.4,1.7c-3.1,0.5-5.4,2.3-5.4,2.7
		c0,0.4,3,2.8,6.8,2.8c0.6,0,1.2-0.1,1.8-0.2l1.8,1l0-1.6c0.8-0.4,1.9-1,2.5-1.4l2.8,2c0.2,0.1,0.3,0.1,0.3-0.2c0,0-0.8-1.4-0.8-2.4
		C21.5,28.5,22.4,27,22.4,27z M10,29.4c-0.4,0-0.8-0.4-0.8-0.8c0-0.4,0.4-0.8,0.8-0.8c0.4,0,0.8,0.4,0.8,0.8
		C10.8,29,10.5,29.4,10,29.4z M16.8,35c0-0.2-0.1-0.3-0.3-0.2l-2.8,2c-0.8-0.6-2.5-1.5-4.1-1.9V33l-3.4,1.7
		c-3.1,0.5-5.4,2.3-5.4,2.7c0,0.4,3.1,2.8,6.8,2.8c0.6,0,1.2-0.1,1.8-0.2l1.8,1v-1.6c0.8-0.4,1.9-1,2.5-1.4l2.8,2
		c0.2,0.1,0.3,0.1,0.3-0.2c0,0-0.8-1.4-0.8-2.4S16.8,35,16.8,35z M4.4,37.4c-0.4,0-0.8-0.4-0.8-0.8c0-0.4,0.4-0.8,0.8-0.8
		s0.8,0.4,0.8,0.8C5.2,37,4.8,37.4,4.4,37.4z M23.1,43c0-0.2-0.1-0.3-0.3-0.2l-2.8,2c-0.8-0.6-2.5-1.5-4.1-1.9V41l-3.4,1.7
		c-3.1,0.5-5.4,2.3-5.4,2.7c0,0.4,3,2.8,6.8,2.8c0.6,0,1.2-0.1,1.8-0.2l1.8,1v-1.6c0.8-0.4,1.9-1,2.5-1.4l2.8,2
		c0.2,0.1,0.3,0.1,0.3-0.2c0,0-0.8-1.4-0.8-2.4S23.1,43,23.1,43z M10.8,45.4c-0.4,0-0.8-0.4-0.8-0.8c0-0.4,0.4-0.8,0.8-0.8
		c0.4,0,0.8,0.4,0.8,0.8C11.6,45,11.2,45.4,10.8,45.4z"/>
</g>
<g id="leaf_2_">
	<path id="leaf_1_" fill="#3D3D3C" d="M6.3,57.7c-3.5,4.5-2,8.7-1.8,10.7l-3.5,3.5v1.3l4-4c2.4,0,17.9,5.5,17.9-18.3
		C14,53.5,9.8,53.2,6.3,57.7z M13,62c-2.1,1.1-5.3,3.1-6.3,4.5c-1,1.4-1.8,2.9-0.4-0.3c1.4-3.2,5.2-5.6,8.2-7.2
		c2.3-1.2,4.3-2.2,5.8-4.5c1.5-2.2,0.5,0.3,0.5,0.3C18.7,58.9,15.9,60.4,13,62z"/>
</g>
<g>
	<path fill="#3D3D3C" d="M8.2,79.8C8.6,79.1,9,78.1,9,77c0-0.6-0.4-1-1-1c-0.5,0-0.9,0.3-1,0.7c-0.3-0.8-0.7-1.3-0.7-1.3
		c-0.3-0.4-1-0.5-1.4-0.2c-0.4,0.3-0.5,1-0.2,1.4c0,0,0.3,0.4,0.5,1c-0.4-0.3-0.7-0.4-0.8-0.4c-0.5-0.2-1.1,0-1.3,0.4
		c-0.2,0.5,0,1.1,0.4,1.3c0.3,0.1,0.8,0.5,1.3,0.9C3.4,80.3,2,81.6,2,84c0,0.1,0.5,15,4.5,15S11,84.1,11,84
		C11,81.7,9.6,80.4,8.2,79.8z M6.5,96.9c-0.5-0.5-1-2.2-1.5-4.3h0.5c0.3,0,0.5-0.2,0.5-0.5s-0.2-0.5-0.5-0.5H4.8
		c-0.1-0.8-0.3-1.7-0.4-2.5h1.1c0.3,0,0.5-0.2,0.5-0.5c0-0.3-0.2-0.5-0.5-0.5H4.3c-0.1-0.9-0.2-1.7-0.2-2.5h1.4
		c0.3,0,0.5-0.2,0.5-0.5c0-0.3-0.2-0.5-0.5-0.5H4c0-0.2,0-0.5,0-0.7c0-2.3,2.1-2.5,2.5-2.5C6.9,81.5,9,81.7,9,84
		C9,87.4,7.7,95.8,6.5,96.9z"/>
	<path fill="#3D3D3C" d="M20.4,95.1c-0.3-0.1-0.8-0.5-1.3-0.9c1.5-0.5,2.8-1.8,2.8-4.2c0-0.1-0.5-15-4.5-15S13,89.9,13,90
		c0,2.3,1.4,3.6,2.8,4.2C15.4,94.9,15,95.9,15,97c0,0.6,0.4,1,1,1c0.5,0,0.9-0.3,1-0.7c0.3,0.8,0.7,1.3,0.7,1.3
		c0.3,0.4,1,0.5,1.4,0.2c0.4-0.3,0.5-1,0.2-1.4c0,0-0.3-0.4-0.5-1c0.4,0.3,0.7,0.4,0.8,0.4c0.5,0.2,1.1,0,1.3-0.4
		C21.1,96,20.9,95.4,20.4,95.1z M15,90c0-3.4,1.3-11.8,2.5-12.9c0.5,0.5,1,2.2,1.5,4.3h-0.5c-0.3,0-0.5,0.2-0.5,0.5
		c0,0.3,0.2,0.5,0.5,0.5h0.7c0.1,0.8,0.3,1.7,0.4,2.5h-1.1c-0.3,0-0.5,0.2-0.5,0.5c0,0.3,0.2,0.5,0.5,0.5h1.2
		c0.1,0.9,0.2,1.7,0.2,2.5h-1.4c-0.3,0-0.5,0.2-0.5,0.5c0,0.3,0.2,0.5,0.5,0.5H20c0,0.2,0,0.5,0,0.7c0,2.3-2.1,2.5-2.5,2.5
		C17.1,92.5,15,92.3,15,90z"/>
</g>
<g id="ban_11_">
	<path fill="#BA4B49" d="M26,114c-2.8,0-5,2.2-5,5s2.2,5,5,5c2.8,0,5-2.2,5-5S28.8,114,26,114z M26,115.3c0.7,0,1.4,0.2,2,0.6
		l-5.1,5.1c-0.4-0.6-0.6-1.2-0.6-2C22.3,117,24,115.3,26,115.3z M26,122.7c-0.7,0-1.4-0.2-2-0.6l5.1-5.1c0.4,0.6,0.6,1.2,0.6,2
		C29.7,121,28,122.7,26,122.7z"/>
</g>
<g id="ban_4_">
	<path fill="#BA4B49" d="M30.4,239c-2.8,0-5,2.2-5,5c0,2.8,2.2,5,5,5c2.8,0,5-2.2,5-5C35.4,241.2,33.2,239,30.4,239z M30.4,240.3
		c0.7,0,1.4,0.2,2,0.6l-5.1,5.1c-0.4-0.6-0.6-1.2-0.6-2C26.7,242,28.4,240.3,30.4,240.3z M30.4,247.7c-0.7,0-1.4-0.2-2-0.6l5.1-5.1
		c0.4,0.6,0.6,1.2,0.6,2C34.1,246,32.4,247.7,30.4,247.7z"/>
</g>
<g id="ban_5_">
	<path fill="#BA4B49" d="M29.9,313.5c-2.8,0-5,2.2-5,5s2.2,5,5,5c2.8,0,5-2.2,5-5S32.7,313.5,29.9,313.5z M29.9,314.8
		c0.7,0,1.4,0.2,2,0.6l-5.1,5.1c-0.4-0.6-0.6-1.2-0.6-2C26.3,316.5,27.9,314.8,29.9,314.8z M29.9,322.2c-0.7,0-1.4-0.2-2-0.6
		l5.1-5.1c0.4,0.6,0.6,1.2,0.6,2C33.6,320.5,32,322.2,29.9,322.2z"/>
</g>
<g id="ban_8_">
	<path fill="#BA4B49" d="M25.9,289c-2.8,0-5,2.2-5,5c0,2.8,2.2,5,5,5c2.8,0,5-2.2,5-5C30.9,291.2,28.7,289,25.9,289z M25.9,290.3
		c0.7,0,1.4,0.2,2,0.6l-5.1,5.1c-0.4-0.6-0.6-1.2-0.6-2C22.3,291.9,23.9,290.3,25.9,290.3z M25.9,297.6c-0.7,0-1.4-0.2-2-0.6L29,292
		c0.4,0.6,0.6,1.2,0.6,2C29.6,296,28,297.6,25.9,297.6z"/>
</g>
<g id="ban_9_">
	<path fill="#BA4B49" d="M27.9,264.2c-2.8,0-5,2.2-5,5c0,2.8,2.2,5,5,5c2.8,0,5-2.2,5-5C32.9,266.5,30.7,264.2,27.9,264.2z
		 M27.9,265.6c0.7,0,1.4,0.2,2,0.6l-5.1,5.1c-0.4-0.6-0.6-1.2-0.6-2C24.3,267.2,25.9,265.6,27.9,265.6z M27.9,272.9
		c-0.7,0-1.4-0.2-2-0.6l5.1-5.1c0.4,0.6,0.6,1.2,0.6,2C31.6,271.3,30,272.9,27.9,272.9z"/>
</g>
<g id="ban_6_">
	<path fill="#BA4B49" d="M27.9,338.9c-2.8,0-5,2.2-5,5s2.2,5,5,5c2.8,0,5-2.2,5-5S30.7,338.9,27.9,338.9z M27.9,340.2
		c0.7,0,1.4,0.2,2,0.6l-5.1,5.1c-0.4-0.6-0.6-1.2-0.6-2C24.3,341.8,25.9,340.2,27.9,340.2z M27.9,347.5c-0.7,0-1.4-0.2-2-0.6
		l5.1-5.1c0.4,0.6,0.6,1.2,0.6,2C31.6,345.9,30,347.5,27.9,347.5z"/>
</g>
<g id="ban_10_">
	<path fill="#BA4B49" d="M30.9,364c-2.8,0-5,2.2-5,5s2.2,5,5,5c2.8,0,5-2.2,5-5S33.7,364,30.9,364z M30.9,365.3c0.7,0,1.4,0.2,2,0.6
		l-5.1,5.1c-0.4-0.6-0.6-1.2-0.6-2C27.3,367,28.9,365.3,30.9,365.3z M30.9,372.7c-0.7,0-1.4-0.2-2-0.6L34,367c0.4,0.6,0.6,1.2,0.6,2
		C34.6,371,33,372.7,30.9,372.7z"/>
</g>
<g id="ban_7_">
	<path fill="#BA4B49" d="M30.9,388.8c-2.8,0-5,2.2-5,5c0,2.8,2.2,5,5,5c2.8,0,5-2.2,5-5C35.9,391.1,33.7,388.8,30.9,388.8z
		 M30.9,390.1c0.7,0,1.4,0.2,2,0.6l-5.1,5.1c-0.4-0.6-0.6-1.2-0.6-2C27.3,391.8,28.9,390.1,30.9,390.1z M30.9,397.5
		c-0.7,0-1.4-0.2-2-0.6l5.1-5.1c0.4,0.6,0.6,1.2,0.6,2C34.6,395.8,33,397.5,30.9,397.5z"/>
</g>
<g id="ban_3_">
	<path fill="#BA4B49" d="M30.4,214c-2.8,0-5,2.2-5,5s2.2,5,5,5c2.8,0,5-2.2,5-5S33.2,214,30.4,214z M30.4,215.3c0.7,0,1.4,0.2,2,0.6
		l-5.1,5.1c-0.4-0.6-0.6-1.2-0.6-2C26.7,217,28.4,215.3,30.4,215.3z M30.4,222.7c-0.7,0-1.4-0.2-2-0.6l5.1-5.1
		c0.4,0.6,0.6,1.2,0.6,2C34.1,221,32.4,222.7,30.4,222.7z"/>
</g>
<g id="ban_2_">
	<path fill="#BA4B49" d="M30.4,189c-2.8,0-5,2.2-5,5s2.2,5,5,5c2.8,0,5-2.2,5-5S33.2,189,30.4,189z M30.4,190.3c0.7,0,1.4,0.2,2,0.6
		l-5.1,5.1c-0.4-0.6-0.6-1.2-0.6-2C26.7,192,28.4,190.3,30.4,190.3z M30.4,197.7c-0.7,0-1.4-0.2-2-0.6l5.1-5.1
		c0.4,0.6,0.6,1.2,0.6,2C34.1,196,32.4,197.7,30.4,197.7z"/>
</g>
<g id="ban_1_">
	<path fill="#BA4B49" d="M26,164c-2.8,0-5,2.2-5,5s2.2,5,5,5c2.8,0,5-2.2,5-5S28.8,164,26,164z M26,165.3c0.7,0,1.4,0.2,2,0.6
		l-5.1,5.1c-0.4-0.6-0.6-1.2-0.6-2C22.3,167,24,165.3,26,165.3z M26,172.7c-0.7,0-1.4-0.2-2-0.6l5.1-5.1c0.4,0.6,0.6,1.2,0.6,2
		C29.7,171,28,172.7,26,172.7z"/>
</g>
<g id="ban_12_">
	<path fill="#BA4B49" d="M27.9,139c-2.8,0-5,2.2-5,5s2.2,5,5,5c2.8,0,5-2.2,5-5S30.6,139,27.9,139z M27.9,140.3c0.7,0,1.4,0.2,2,0.6
		l-5.1,5.1c-0.4-0.6-0.6-1.2-0.6-2C24.2,142,25.8,140.3,27.9,140.3z M27.9,147.7c-0.7,0-1.4-0.2-2-0.6L31,142c0.4,0.6,0.6,1.2,0.6,2
		C31.5,146,29.9,147.7,27.9,147.7z"/>
</g>
</svg>
